ISO-10303-21;
HEADER;
/* Generated by software containing ST-Developer
 * from STEP Tools, Inc. (www.steptools.com) 
 */
/* OPTION: using custom renumber hook */

FILE_DESCRIPTION(
/* description */ ('STEP AP242 Edition 2',
'CAx-IF Rec.Pracs.---Representation and Presentation of Product Manufa
cturing Information (PMI)---4.0---2014-10-13',
'CAx-IF Rec.Pracs.---3D Tessellated Geometry---0.4---2014-09-14','2;1',
'CAx-IF Rec.Pracs.---User Defined Attributes---1.5---2016-08-15'),
/* implementation_level */ '2;1');

FILE_NAME(
/* name */ '6a3f75d059c2af4877741307',
/* time_stamp */ '2026-06-27T07:03:44Z',
/* author */ (''),
/* organization */ (''),
/* preprocessor_version */ 'ST-DEVELOPER v20',
/* originating_system */ 'ONSHAPE BY PTC INC, 1.217',
/* authorisation */ '  ');

FILE_SCHEMA (('AP242_MANAGED_MODEL_BASED_3D_ENGINEERING_MIM_LF { 1 0 10303 442 3 1 4 }'));
ENDSEC;

DATA;
#10=OVER_RIDING_STYLED_ITEM('',(#645),#622,#639);
#11=OVER_RIDING_STYLED_ITEM('',(#646),#623,#639);
#12=OVER_RIDING_STYLED_ITEM('',(#647),#624,#639);
#13=OVER_RIDING_STYLED_ITEM('',(#648),#625,#639);
#14=OVER_RIDING_STYLED_ITEM('',(#649),#626,#639);
#15=OVER_RIDING_STYLED_ITEM('',(#650),#627,#639);
#16=LINE('',#1041,#52);
#17=LINE('',#1046,#53);
#18=LINE('',#1050,#54);
#19=LINE('',#1054,#55);
#20=LINE('',#1064,#56);
#21=LINE('',#1067,#57);
#22=LINE('',#1069,#58);
#23=LINE('',#1071,#59);
#24=LINE('',#1075,#60);
#25=LINE('',#1081,#61);
#26=LINE('',#1085,#62);
#27=LINE('',#1089,#63);
#28=LINE('',#1095,#64);
#29=LINE('',#1100,#65);
#30=LINE('',#1104,#66);
#31=LINE('',#1108,#67);
#32=LINE('',#1113,#68);
#33=LINE('',#1117,#69);
#34=LINE('',#1121,#70);
#35=LINE('',#1125,#71);
#36=LINE('',#1129,#72);
#37=LINE('',#1130,#73);
#38=LINE('',#1132,#74);
#39=LINE('',#1134,#75);
#40=LINE('',#1136,#76);
#41=LINE('',#1138,#77);
#42=LINE('',#1140,#78);
#43=LINE('',#1142,#79);
#44=LINE('',#1145,#80);
#45=LINE('',#1146,#81);
#46=LINE('',#1148,#82);
#47=LINE('',#1150,#83);
#48=LINE('',#1152,#84);
#49=LINE('',#1154,#85);
#50=LINE('',#1156,#86);
#51=LINE('',#1158,#87);
#52=VECTOR('',#851,1.);
#53=VECTOR('',#854,1.);
#54=VECTOR('',#857,1.);
#55=VECTOR('',#860,1.);
#56=VECTOR('',#871,1.);
#57=VECTOR('',#872,1.);
#58=VECTOR('',#873,1.);
#59=VECTOR('',#874,1.);
#60=VECTOR('',#879,1.);
#61=VECTOR('',#884,1.);
#62=VECTOR('',#887,1.);
#63=VECTOR('',#890,1.);
#64=VECTOR('',#897,1.);
#65=VECTOR('',#900,1.);
#66=VECTOR('',#903,1.);
#67=VECTOR('',#906,1.);
#68=VECTOR('',#911,1.);
#69=VECTOR('',#914,1.);
#70=VECTOR('',#917,1.);
#71=VECTOR('',#920,1.);
#72=VECTOR('',#925,1.);
#73=VECTOR('',#926,1.);
#74=VECTOR('',#929,1.);
#75=VECTOR('',#932,1.);
#76=VECTOR('',#935,1.);
#77=VECTOR('',#938,1.);
#78=VECTOR('',#941,1.);
#79=VECTOR('',#944,1.);
#80=VECTOR('',#949,1.);
#81=VECTOR('',#950,1.);
#82=VECTOR('',#953,1.);
#83=VECTOR('',#956,1.);
#84=VECTOR('',#959,1.);
#85=VECTOR('',#962,1.);
#86=VECTOR('',#965,1.);
#87=VECTOR('',#968,1.);
#88=CONTEXT_DEPENDENT_SHAPE_REPRESENTATION(#98,#1208);
#89=CONTEXT_DEPENDENT_SHAPE_REPRESENTATION(#99,#1210);
#90=CONTEXT_DEPENDENT_SHAPE_REPRESENTATION(#100,#1212);
#91=CONTEXT_DEPENDENT_SHAPE_REPRESENTATION(#101,#1214);
#92=CONTEXT_DEPENDENT_SHAPE_REPRESENTATION(#102,#1216);
#93=NEXT_ASSEMBLY_USAGE_OCCURRENCE('NAUO1','Part 6','Part 6',#1217,#1218,
'');
#94=NEXT_ASSEMBLY_USAGE_OCCURRENCE('NAUO2','Part 5','Part 5',#1217,#1219,
'');
#95=NEXT_ASSEMBLY_USAGE_OCCURRENCE('NAUO3','Part 7','Part 7',#1217,#1220,
'');
#96=NEXT_ASSEMBLY_USAGE_OCCURRENCE('NAUO4','Part 1','Part 1',#1217,#1221,
'');
#97=NEXT_ASSEMBLY_USAGE_OCCURRENCE('NAUO5','Part 8','Part 8',#1217,#1222,
'');
#98=(
REPRESENTATION_RELATIONSHIP(' ',' ',#722,#721)
REPRESENTATION_RELATIONSHIP_WITH_TRANSFORMATION(#103)
SHAPE_REPRESENTATION_RELATIONSHIP()
);
#99=(
REPRESENTATION_RELATIONSHIP(' ',' ',#723,#721)
REPRESENTATION_RELATIONSHIP_WITH_TRANSFORMATION(#104)
SHAPE_REPRESENTATION_RELATIONSHIP()
);
#100=(
REPRESENTATION_RELATIONSHIP(' ',' ',#724,#721)
REPRESENTATION_RELATIONSHIP_WITH_TRANSFORMATION(#105)
SHAPE_REPRESENTATION_RELATIONSHIP()
);
#101=(
REPRESENTATION_RELATIONSHIP(' ',' ',#725,#721)
REPRESENTATION_RELATIONSHIP_WITH_TRANSFORMATION(#106)
SHAPE_REPRESENTATION_RELATIONSHIP()
);
#102=(
REPRESENTATION_RELATIONSHIP(' ',' ',#726,#721)
REPRESENTATION_RELATIONSHIP_WITH_TRANSFORMATION(#107)
SHAPE_REPRESENTATION_RELATIONSHIP()
);
#103=ITEM_DEFINED_TRANSFORMATION(' ',' ',#727,#733);
#104=ITEM_DEFINED_TRANSFORMATION(' ',' ',#727,#739);
#105=ITEM_DEFINED_TRANSFORMATION(' ',' ',#727,#745);
#106=ITEM_DEFINED_TRANSFORMATION(' ',' ',#727,#804);
#107=ITEM_DEFINED_TRANSFORMATION(' ',' ',#727,#810);
#108=SHAPE_REPRESENTATION_RELATIONSHIP('','',#722,#113);
#109=SHAPE_REPRESENTATION_RELATIONSHIP('','',#723,#114);
#110=SHAPE_REPRESENTATION_RELATIONSHIP('','',#724,#115);
#111=SHAPE_REPRESENTATION_RELATIONSHIP('','',#725,#116);
#112=SHAPE_REPRESENTATION_RELATIONSHIP('','',#726,#117);
#113=ADVANCED_BREP_SHAPE_REPRESENTATION('',(#710),#1192);
#114=ADVANCED_BREP_SHAPE_REPRESENTATION('',(#711),#1193);
#115=ADVANCED_BREP_SHAPE_REPRESENTATION('',(#712),#1194);
#116=ADVANCED_BREP_SHAPE_REPRESENTATION('',(#713),#1195);
#117=ADVANCED_BREP_SHAPE_REPRESENTATION('',(#714),#1196);
#118=PLANE('',#731);
#119=PLANE('',#732);
#120=PLANE('',#737);
#121=PLANE('',#738);
#122=PLANE('',#743);
#123=PLANE('',#744);
#124=PLANE('',#746);
#125=PLANE('',#754);
#126=PLANE('',#755);
#127=PLANE('',#763);
#128=PLANE('',#773);
#129=PLANE('',#775);
#130=PLANE('',#777);
#131=PLANE('',#779);
#132=PLANE('',#781);
#133=PLANE('',#783);
#134=PLANE('',#785);
#135=PLANE('',#787);
#136=PLANE('',#797);
#137=PLANE('',#800);
#138=PLANE('',#803);
#139=PLANE('',#808);
#140=PLANE('',#809);
#141=ORIENTED_EDGE('',*,*,#287,.F.);
#142=ORIENTED_EDGE('',*,*,#288,.T.);
#143=ORIENTED_EDGE('',*,*,#287,.T.);
#144=ORIENTED_EDGE('',*,*,#288,.F.);
#145=ORIENTED_EDGE('',*,*,#289,.F.);
#146=ORIENTED_EDGE('',*,*,#290,.T.);
#147=ORIENTED_EDGE('',*,*,#289,.T.);
#148=ORIENTED_EDGE('',*,*,#290,.F.);
#149=ORIENTED_EDGE('',*,*,#291,.T.);
#150=ORIENTED_EDGE('',*,*,#292,.F.);
#151=ORIENTED_EDGE('',*,*,#291,.F.);
#152=ORIENTED_EDGE('',*,*,#292,.T.);
#153=ORIENTED_EDGE('',*,*,#293,.F.);
#154=ORIENTED_EDGE('',*,*,#294,.T.);
#155=ORIENTED_EDGE('',*,*,#295,.F.);
#156=ORIENTED_EDGE('',*,*,#296,.T.);
#157=ORIENTED_EDGE('',*,*,#297,.T.);
#158=ORIENTED_EDGE('',*,*,#298,.T.);
#159=ORIENTED_EDGE('',*,*,#299,.T.);
#160=ORIENTED_EDGE('',*,*,#300,.T.);
#161=ORIENTED_EDGE('',*,*,#301,.F.);
#162=ORIENTED_EDGE('',*,*,#302,.F.);
#163=ORIENTED_EDGE('',*,*,#303,.T.);
#164=ORIENTED_EDGE('',*,*,#304,.F.);
#165=ORIENTED_EDGE('',*,*,#305,.T.);
#166=ORIENTED_EDGE('',*,*,#306,.T.);
#167=ORIENTED_EDGE('',*,*,#307,.F.);
#168=ORIENTED_EDGE('',*,*,#308,.T.);
#169=ORIENTED_EDGE('',*,*,#309,.T.);
#170=ORIENTED_EDGE('',*,*,#310,.T.);
#171=ORIENTED_EDGE('',*,*,#307,.T.);
#172=ORIENTED_EDGE('',*,*,#311,.F.);
#173=ORIENTED_EDGE('',*,*,#312,.F.);
#174=ORIENTED_EDGE('',*,*,#313,.F.);
#175=ORIENTED_EDGE('',*,*,#314,.F.);
#176=ORIENTED_EDGE('',*,*,#315,.F.);
#177=ORIENTED_EDGE('',*,*,#316,.T.);
#178=ORIENTED_EDGE('',*,*,#317,.F.);
#179=ORIENTED_EDGE('',*,*,#318,.F.);
#180=ORIENTED_EDGE('',*,*,#319,.T.);
#181=ORIENTED_EDGE('',*,*,#320,.F.);
#182=ORIENTED_EDGE('',*,*,#321,.F.);
#183=ORIENTED_EDGE('',*,*,#322,.F.);
#184=ORIENTED_EDGE('',*,*,#323,.F.);
#185=ORIENTED_EDGE('',*,*,#324,.F.);
#186=ORIENTED_EDGE('',*,*,#325,.T.);
#187=ORIENTED_EDGE('',*,*,#326,.F.);
#188=ORIENTED_EDGE('',*,*,#305,.F.);
#189=ORIENTED_EDGE('',*,*,#327,.T.);
#190=ORIENTED_EDGE('',*,*,#328,.F.);
#191=ORIENTED_EDGE('',*,*,#329,.T.);
#192=ORIENTED_EDGE('',*,*,#330,.F.);
#193=ORIENTED_EDGE('',*,*,#331,.T.);
#194=ORIENTED_EDGE('',*,*,#332,.T.);
#195=ORIENTED_EDGE('',*,*,#333,.T.);
#196=ORIENTED_EDGE('',*,*,#334,.T.);
#197=ORIENTED_EDGE('',*,*,#335,.T.);
#198=ORIENTED_EDGE('',*,*,#293,.T.);
#199=ORIENTED_EDGE('',*,*,#336,.F.);
#200=ORIENTED_EDGE('',*,*,#319,.F.);
#201=ORIENTED_EDGE('',*,*,#337,.T.);
#202=ORIENTED_EDGE('',*,*,#294,.F.);
#203=ORIENTED_EDGE('',*,*,#337,.F.);
#204=ORIENTED_EDGE('',*,*,#326,.T.);
#205=ORIENTED_EDGE('',*,*,#338,.T.);
#206=ORIENTED_EDGE('',*,*,#295,.T.);
#207=ORIENTED_EDGE('',*,*,#338,.F.);
#208=ORIENTED_EDGE('',*,*,#325,.F.);
#209=ORIENTED_EDGE('',*,*,#339,.T.);
#210=ORIENTED_EDGE('',*,*,#296,.F.);
#211=ORIENTED_EDGE('',*,*,#339,.F.);
#212=ORIENTED_EDGE('',*,*,#324,.T.);
#213=ORIENTED_EDGE('',*,*,#340,.T.);
#214=ORIENTED_EDGE('',*,*,#297,.F.);
#215=ORIENTED_EDGE('',*,*,#340,.F.);
#216=ORIENTED_EDGE('',*,*,#323,.T.);
#217=ORIENTED_EDGE('',*,*,#341,.T.);
#218=ORIENTED_EDGE('',*,*,#298,.F.);
#219=ORIENTED_EDGE('',*,*,#341,.F.);
#220=ORIENTED_EDGE('',*,*,#322,.T.);
#221=ORIENTED_EDGE('',*,*,#342,.T.);
#222=ORIENTED_EDGE('',*,*,#299,.F.);
#223=ORIENTED_EDGE('',*,*,#342,.F.);
#224=ORIENTED_EDGE('',*,*,#321,.T.);
#225=ORIENTED_EDGE('',*,*,#343,.T.);
#226=ORIENTED_EDGE('',*,*,#300,.F.);
#227=ORIENTED_EDGE('',*,*,#343,.F.);
#228=ORIENTED_EDGE('',*,*,#320,.T.);
#229=ORIENTED_EDGE('',*,*,#336,.T.);
#230=ORIENTED_EDGE('',*,*,#344,.F.);
#231=ORIENTED_EDGE('',*,*,#309,.F.);
#232=ORIENTED_EDGE('',*,*,#345,.F.);
#233=ORIENTED_EDGE('',*,*,#328,.T.);
#234=ORIENTED_EDGE('',*,*,#317,.T.);
#235=ORIENTED_EDGE('',*,*,#346,.F.);
#236=ORIENTED_EDGE('',*,*,#329,.F.);
#237=ORIENTED_EDGE('',*,*,#345,.T.);
#238=ORIENTED_EDGE('',*,*,#316,.F.);
#239=ORIENTED_EDGE('',*,*,#347,.F.);
#240=ORIENTED_EDGE('',*,*,#330,.T.);
#241=ORIENTED_EDGE('',*,*,#346,.T.);
#242=ORIENTED_EDGE('',*,*,#315,.T.);
#243=ORIENTED_EDGE('',*,*,#348,.F.);
#244=ORIENTED_EDGE('',*,*,#331,.F.);
#245=ORIENTED_EDGE('',*,*,#347,.T.);
#246=ORIENTED_EDGE('',*,*,#314,.T.);
#247=ORIENTED_EDGE('',*,*,#349,.F.);
#248=ORIENTED_EDGE('',*,*,#332,.F.);
#249=ORIENTED_EDGE('',*,*,#348,.T.);
#250=ORIENTED_EDGE('',*,*,#313,.T.);
#251=ORIENTED_EDGE('',*,*,#350,.F.);
#252=ORIENTED_EDGE('',*,*,#333,.F.);
#253=ORIENTED_EDGE('',*,*,#349,.T.);
#254=ORIENTED_EDGE('',*,*,#312,.T.);
#255=ORIENTED_EDGE('',*,*,#351,.F.);
#256=ORIENTED_EDGE('',*,*,#334,.F.);
#257=ORIENTED_EDGE('',*,*,#350,.T.);
#258=ORIENTED_EDGE('',*,*,#311,.T.);
#259=ORIENTED_EDGE('',*,*,#306,.F.);
#260=ORIENTED_EDGE('',*,*,#335,.F.);
#261=ORIENTED_EDGE('',*,*,#351,.T.);
#262=ORIENTED_EDGE('',*,*,#308,.F.);
#263=ORIENTED_EDGE('',*,*,#352,.T.);
#264=ORIENTED_EDGE('',*,*,#318,.T.);
#265=ORIENTED_EDGE('',*,*,#353,.F.);
#266=ORIENTED_EDGE('',*,*,#304,.T.);
#267=ORIENTED_EDGE('',*,*,#310,.F.);
#268=ORIENTED_EDGE('',*,*,#344,.T.);
#269=ORIENTED_EDGE('',*,*,#327,.F.);
#270=ORIENTED_EDGE('',*,*,#354,.T.);
#271=ORIENTED_EDGE('',*,*,#355,.F.);
#272=ORIENTED_EDGE('',*,*,#301,.T.);
#273=ORIENTED_EDGE('',*,*,#353,.T.);
#274=ORIENTED_EDGE('',*,*,#355,.T.);
#275=ORIENTED_EDGE('',*,*,#356,.F.);
#276=ORIENTED_EDGE('',*,*,#302,.T.);
#277=ORIENTED_EDGE('',*,*,#354,.F.);
#278=ORIENTED_EDGE('',*,*,#356,.T.);
#279=ORIENTED_EDGE('',*,*,#357,.T.);
#280=ORIENTED_EDGE('',*,*,#303,.F.);
#281=ORIENTED_EDGE('',*,*,#357,.F.);
#282=ORIENTED_EDGE('',*,*,#352,.F.);
#283=ORIENTED_EDGE('',*,*,#358,.T.);
#284=ORIENTED_EDGE('',*,*,#359,.F.);
#285=ORIENTED_EDGE('',*,*,#358,.F.);
#286=ORIENTED_EDGE('',*,*,#359,.T.);
#287=EDGE_CURVE('',#360,#360,#415,.T.);
#288=EDGE_CURVE('',#361,#361,#416,.T.);
#289=EDGE_CURVE('',#362,#362,#417,.T.);
#290=EDGE_CURVE('',#363,#363,#418,.T.);
#291=EDGE_CURVE('',#364,#364,#419,.T.);
#292=EDGE_CURVE('',#365,#365,#420,.T.);
#293=EDGE_CURVE('',#366,#367,#16,.T.);
#294=EDGE_CURVE('',#366,#368,#421,.T.);
#295=EDGE_CURVE('',#369,#368,#17,.T.);
#296=EDGE_CURVE('',#369,#370,#422,.T.);
#297=EDGE_CURVE('',#370,#371,#18,.T.);
#298=EDGE_CURVE('',#371,#372,#423,.T.);
#299=EDGE_CURVE('',#372,#373,#19,.T.);
#300=EDGE_CURVE('',#373,#367,#424,.T.);
#301=EDGE_CURVE('',#374,#374,#425,.T.);
#302=EDGE_CURVE('',#375,#375,#426,.T.);
#303=EDGE_CURVE('',#376,#376,#427,.T.);
#304=EDGE_CURVE('',#377,#378,#20,.T.);
#305=EDGE_CURVE('',#377,#379,#21,.T.);
#306=EDGE_CURVE('',#379,#380,#22,.T.);
#307=EDGE_CURVE('',#378,#380,#23,.T.);
#308=EDGE_CURVE('',#381,#381,#428,.T.);
#309=EDGE_CURVE('',#382,#383,#24,.T.);
#310=EDGE_CURVE('',#383,#378,#429,.T.);
#311=EDGE_CURVE('',#384,#380,#430,.T.);
#312=EDGE_CURVE('',#385,#384,#25,.T.);
#313=EDGE_CURVE('',#386,#385,#431,.T.);
#314=EDGE_CURVE('',#387,#386,#26,.T.);
#315=EDGE_CURVE('',#388,#387,#432,.T.);
#316=EDGE_CURVE('',#388,#389,#27,.T.);
#317=EDGE_CURVE('',#382,#389,#433,.T.);
#318=EDGE_CURVE('',#390,#390,#434,.F.);
#319=EDGE_CURVE('',#391,#392,#28,.T.);
#320=EDGE_CURVE('',#393,#392,#435,.T.);
#321=EDGE_CURVE('',#394,#393,#29,.T.);
#322=EDGE_CURVE('',#395,#394,#436,.T.);
#323=EDGE_CURVE('',#396,#395,#30,.T.);
#324=EDGE_CURVE('',#397,#396,#437,.T.);
#325=EDGE_CURVE('',#397,#398,#31,.T.);
#326=EDGE_CURVE('',#391,#398,#438,.T.);
#327=EDGE_CURVE('',#377,#399,#439,.T.);
#328=EDGE_CURVE('',#400,#399,#32,.T.);
#329=EDGE_CURVE('',#400,#401,#440,.T.);
#330=EDGE_CURVE('',#402,#401,#33,.T.);
#331=EDGE_CURVE('',#402,#403,#441,.T.);
#332=EDGE_CURVE('',#403,#404,#34,.T.);
#333=EDGE_CURVE('',#404,#405,#442,.T.);
#334=EDGE_CURVE('',#405,#406,#35,.T.);
#335=EDGE_CURVE('',#406,#379,#443,.T.);
#336=EDGE_CURVE('',#392,#367,#36,.T.);
#337=EDGE_CURVE('',#391,#366,#37,.T.);
#338=EDGE_CURVE('',#398,#368,#38,.T.);
#339=EDGE_CURVE('',#397,#369,#39,.T.);
#340=EDGE_CURVE('',#396,#370,#40,.T.);
#341=EDGE_CURVE('',#395,#371,#41,.T.);
#342=EDGE_CURVE('',#394,#372,#42,.T.);
#343=EDGE_CURVE('',#393,#373,#43,.T.);
#344=EDGE_CURVE('',#383,#399,#44,.F.);
#345=EDGE_CURVE('',#400,#382,#45,.F.);
#346=EDGE_CURVE('',#401,#389,#46,.T.);
#347=EDGE_CURVE('',#402,#388,#47,.F.);
#348=EDGE_CURVE('',#403,#387,#48,.T.);
#349=EDGE_CURVE('',#404,#386,#49,.F.);
#350=EDGE_CURVE('',#405,#385,#50,.T.);
#351=EDGE_CURVE('',#406,#384,#51,.F.);
#352=EDGE_CURVE('',#407,#407,#444,.T.);
#353=EDGE_CURVE('',#408,#408,#445,.T.);
#354=EDGE_CURVE('',#409,#409,#446,.T.);
#355=EDGE_CURVE('',#410,#410,#447,.T.);
#356=EDGE_CURVE('',#411,#411,#448,.T.);
#357=EDGE_CURVE('',#412,#412,#449,.T.);
#358=EDGE_CURVE('',#413,#413,#450,.T.);
#359=EDGE_CURVE('',#414,#414,#451,.T.);
#360=VERTEX_POINT('',#1018);
#361=VERTEX_POINT('',#1020);
#362=VERTEX_POINT('',#1026);
#363=VERTEX_POINT('',#1028);
#364=VERTEX_POINT('',#1034);
#365=VERTEX_POINT('',#1036);
#366=VERTEX_POINT('',#1042);
#367=VERTEX_POINT('',#1043);
#368=VERTEX_POINT('',#1045);
#369=VERTEX_POINT('',#1047);
#370=VERTEX_POINT('',#1049);
#371=VERTEX_POINT('',#1051);
#372=VERTEX_POINT('',#1053);
#373=VERTEX_POINT('',#1055);
#374=VERTEX_POINT('',#1058);
#375=VERTEX_POINT('',#1060);
#376=VERTEX_POINT('',#1062);
#377=VERTEX_POINT('',#1065);
#378=VERTEX_POINT('',#1066);
#379=VERTEX_POINT('',#1068);
#380=VERTEX_POINT('',#1070);
#381=VERTEX_POINT('',#1074);
#382=VERTEX_POINT('',#1076);
#383=VERTEX_POINT('',#1077);
#384=VERTEX_POINT('',#1080);
#385=VERTEX_POINT('',#1082);
#386=VERTEX_POINT('',#1084);
#387=VERTEX_POINT('',#1086);
#388=VERTEX_POINT('',#1088);
#389=VERTEX_POINT('',#1090);
#390=VERTEX_POINT('',#1093);
#391=VERTEX_POINT('',#1096);
#392=VERTEX_POINT('',#1097);
#393=VERTEX_POINT('',#1099);
#394=VERTEX_POINT('',#1101);
#395=VERTEX_POINT('',#1103);
#396=VERTEX_POINT('',#1105);
#397=VERTEX_POINT('',#1107);
#398=VERTEX_POINT('',#1109);
#399=VERTEX_POINT('',#1112);
#400=VERTEX_POINT('',#1114);
#401=VERTEX_POINT('',#1116);
#402=VERTEX_POINT('',#1118);
#403=VERTEX_POINT('',#1120);
#404=VERTEX_POINT('',#1122);
#405=VERTEX_POINT('',#1124);
#406=VERTEX_POINT('',#1126);
#407=VERTEX_POINT('',#1162);
#408=VERTEX_POINT('',#1165);
#409=VERTEX_POINT('',#1168);
#410=VERTEX_POINT('',#1171);
#411=VERTEX_POINT('',#1175);
#412=VERTEX_POINT('',#1179);
#413=VERTEX_POINT('',#1184);
#414=VERTEX_POINT('',#1186);
#415=CIRCLE('',#729,0.00254);
#416=CIRCLE('',#730,0.00254);
#417=CIRCLE('',#735,0.00254);
#418=CIRCLE('',#736,0.00254);
#419=CIRCLE('',#741,0.00254);
#420=CIRCLE('',#742,0.00254);
#421=CIRCLE('',#747,0.00797173318295594);
#422=CIRCLE('',#748,0.00797173318295595);
#423=CIRCLE('',#749,0.00797173318295595);
#424=CIRCLE('',#750,0.00797173318295594);
#425=CIRCLE('',#751,0.00595628922202562);
#426=CIRCLE('',#752,0.00848881886297319);
#427=CIRCLE('',#753,0.00595628922202562);
#428=CIRCLE('',#756,0.004953);
#429=CIRCLE('',#757,0.00762);
#430=CIRCLE('',#758,0.00543173318295594);
#431=CIRCLE('',#759,0.00543173318295595);
#432=CIRCLE('',#760,0.00543173318295595);
#433=CIRCLE('',#761,0.00543173318295594);
#434=CIRCLE('',#762,0.004953);
#435=CIRCLE('',#764,0.00797173318295594);
#436=CIRCLE('',#765,0.00797173318295595);
#437=CIRCLE('',#766,0.00797173318295595);
#438=CIRCLE('',#767,0.00797173318295594);
#439=CIRCLE('',#768,0.00762);
#440=CIRCLE('',#769,0.00543173318295594);
#441=CIRCLE('',#770,0.00543173318295595);
#442=CIRCLE('',#771,0.00543173318295595);
#443=CIRCLE('',#772,0.00543173318295594);
#444=CIRCLE('',#790,0.004953);
#445=CIRCLE('',#792,0.004953);
#446=CIRCLE('',#794,0.00762);
#447=CIRCLE('',#796,0.00595628922202562);
#448=CIRCLE('',#799,0.00848881886297319);
#449=CIRCLE('',#802,0.00595628922202562);
#450=CIRCLE('',#806,0.00254);
#451=CIRCLE('',#807,0.00254);
#452=EDGE_LOOP('',(#141));
#453=EDGE_LOOP('',(#142));
#454=EDGE_LOOP('',(#143));
#455=EDGE_LOOP('',(#144));
#456=EDGE_LOOP('',(#145));
#457=EDGE_LOOP('',(#146));
#458=EDGE_LOOP('',(#147));
#459=EDGE_LOOP('',(#148));
#460=EDGE_LOOP('',(#149));
#461=EDGE_LOOP('',(#150));
#462=EDGE_LOOP('',(#151));
#463=EDGE_LOOP('',(#152));
#464=EDGE_LOOP('',(#153,#154,#155,#156,#157,#158,#159,#160));
#465=EDGE_LOOP('',(#161));
#466=EDGE_LOOP('',(#162));
#467=EDGE_LOOP('',(#163));
#468=EDGE_LOOP('',(#164,#165,#166,#167));
#469=EDGE_LOOP('',(#168));
#470=EDGE_LOOP('',(#169,#170,#171,#172,#173,#174,#175,#176,#177,#178));
#471=EDGE_LOOP('',(#179));
#472=EDGE_LOOP('',(#180,#181,#182,#183,#184,#185,#186,#187));
#473=EDGE_LOOP('',(#188,#189,#190,#191,#192,#193,#194,#195,#196,#197));
#474=EDGE_LOOP('',(#198,#199,#200,#201));
#475=EDGE_LOOP('',(#202,#203,#204,#205));
#476=EDGE_LOOP('',(#206,#207,#208,#209));
#477=EDGE_LOOP('',(#210,#211,#212,#213));
#478=EDGE_LOOP('',(#214,#215,#216,#217));
#479=EDGE_LOOP('',(#218,#219,#220,#221));
#480=EDGE_LOOP('',(#222,#223,#224,#225));
#481=EDGE_LOOP('',(#226,#227,#228,#229));
#482=EDGE_LOOP('',(#230,#231,#232,#233));
#483=EDGE_LOOP('',(#234,#235,#236,#237));
#484=EDGE_LOOP('',(#238,#239,#240,#241));
#485=EDGE_LOOP('',(#242,#243,#244,#245));
#486=EDGE_LOOP('',(#246,#247,#248,#249));
#487=EDGE_LOOP('',(#250,#251,#252,#253));
#488=EDGE_LOOP('',(#254,#255,#256,#257));
#489=EDGE_LOOP('',(#258,#259,#260,#261));
#490=EDGE_LOOP('',(#262));
#491=EDGE_LOOP('',(#263));
#492=EDGE_LOOP('',(#264));
#493=EDGE_LOOP('',(#265));
#494=EDGE_LOOP('',(#266,#267,#268,#269));
#495=EDGE_LOOP('',(#270));
#496=EDGE_LOOP('',(#271));
#497=EDGE_LOOP('',(#272));
#498=EDGE_LOOP('',(#273));
#499=EDGE_LOOP('',(#274));
#500=EDGE_LOOP('',(#275));
#501=EDGE_LOOP('',(#276));
#502=EDGE_LOOP('',(#277));
#503=EDGE_LOOP('',(#278));
#504=EDGE_LOOP('',(#279));
#505=EDGE_LOOP('',(#280));
#506=EDGE_LOOP('',(#281));
#507=EDGE_LOOP('',(#282));
#508=EDGE_LOOP('',(#283));
#509=EDGE_LOOP('',(#284));
#510=EDGE_LOOP('',(#285));
#511=EDGE_LOOP('',(#286));
#512=FACE_BOUND('',#452,.T.);
#513=FACE_BOUND('',#453,.T.);
#514=FACE_BOUND('',#454,.T.);
#515=FACE_BOUND('',#455,.T.);
#516=FACE_BOUND('',#456,.T.);
#517=FACE_BOUND('',#457,.T.);
#518=FACE_BOUND('',#458,.T.);
#519=FACE_BOUND('',#459,.T.);
#520=FACE_BOUND('',#460,.T.);
#521=FACE_BOUND('',#461,.T.);
#522=FACE_BOUND('',#462,.T.);
#523=FACE_BOUND('',#463,.T.);
#524=FACE_BOUND('',#464,.T.);
#525=FACE_BOUND('',#465,.T.);
#526=FACE_BOUND('',#466,.T.);
#527=FACE_BOUND('',#467,.T.);
#528=FACE_BOUND('',#468,.T.);
#529=FACE_BOUND('',#469,.T.);
#530=FACE_BOUND('',#470,.T.);
#531=FACE_BOUND('',#471,.T.);
#532=FACE_BOUND('',#472,.T.);
#533=FACE_BOUND('',#473,.T.);
#534=FACE_BOUND('',#474,.T.);
#535=FACE_BOUND('',#475,.T.);
#536=FACE_BOUND('',#476,.T.);
#537=FACE_BOUND('',#477,.T.);
#538=FACE_BOUND('',#478,.T.);
#539=FACE_BOUND('',#479,.T.);
#540=FACE_BOUND('',#480,.T.);
#541=FACE_BOUND('',#481,.T.);
#542=FACE_BOUND('',#482,.T.);
#543=FACE_BOUND('',#483,.T.);
#544=FACE_BOUND('',#484,.T.);
#545=FACE_BOUND('',#485,.T.);
#546=FACE_BOUND('',#486,.T.);
#547=FACE_BOUND('',#487,.T.);
#548=FACE_BOUND('',#488,.T.);
#549=FACE_BOUND('',#489,.T.);
#550=FACE_BOUND('',#490,.T.);
#551=FACE_BOUND('',#491,.T.);
#552=FACE_BOUND('',#492,.T.);
#553=FACE_BOUND('',#493,.T.);
#554=FACE_BOUND('',#494,.T.);
#555=FACE_BOUND('',#495,.T.);
#556=FACE_BOUND('',#496,.T.);
#557=FACE_BOUND('',#497,.T.);
#558=FACE_BOUND('',#498,.T.);
#559=FACE_BOUND('',#499,.T.);
#560=FACE_BOUND('',#500,.T.);
#561=FACE_BOUND('',#501,.T.);
#562=FACE_BOUND('',#502,.T.);
#563=FACE_BOUND('',#503,.T.);
#564=FACE_BOUND('',#504,.T.);
#565=FACE_BOUND('',#505,.T.);
#566=FACE_BOUND('',#506,.T.);
#567=FACE_BOUND('',#507,.T.);
#568=FACE_BOUND('',#508,.T.);
#569=FACE_BOUND('',#509,.T.);
#570=FACE_BOUND('',#510,.T.);
#571=FACE_BOUND('',#511,.T.);
#572=CYLINDRICAL_SURFACE('',#728,0.00254);
#573=CYLINDRICAL_SURFACE('',#734,0.00254);
#574=CYLINDRICAL_SURFACE('',#740,0.00254);
#575=CYLINDRICAL_SURFACE('',#774,0.00797173318295594);
#576=CYLINDRICAL_SURFACE('',#776,0.00797173318295595);
#577=CYLINDRICAL_SURFACE('',#778,0.00797173318295595);
#578=CYLINDRICAL_SURFACE('',#780,0.00797173318295594);
#579=CYLINDRICAL_SURFACE('',#782,0.00543173318295594);
#580=CYLINDRICAL_SURFACE('',#784,0.00543173318295595);
#581=CYLINDRICAL_SURFACE('',#786,0.00543173318295595);
#582=CYLINDRICAL_SURFACE('',#788,0.00543173318295594);
#583=CYLINDRICAL_SURFACE('',#789,0.004953);
#584=CYLINDRICAL_SURFACE('',#791,0.004953);
#585=CYLINDRICAL_SURFACE('',#793,0.00762);
#586=CYLINDRICAL_SURFACE('',#795,0.00595628922202562);
#587=CYLINDRICAL_SURFACE('',#798,0.00848881886297319);
#588=CYLINDRICAL_SURFACE('',#801,0.00595628922202562);
#589=CYLINDRICAL_SURFACE('',#805,0.00254);
#590=ADVANCED_FACE('',(#512,#513),#572,.T.);
#591=ADVANCED_FACE('',(#514),#118,.T.);
#592=ADVANCED_FACE('',(#515),#119,.F.);
#593=ADVANCED_FACE('',(#516,#517),#573,.T.);
#594=ADVANCED_FACE('',(#518),#120,.T.);
#595=ADVANCED_FACE('',(#519),#121,.F.);
#596=ADVANCED_FACE('',(#520,#521),#574,.T.);
#597=ADVANCED_FACE('',(#522),#122,.T.);
#598=ADVANCED_FACE('',(#523),#123,.F.);
#599=ADVANCED_FACE('',(#524,#525,#526,#527),#124,.T.);
#600=ADVANCED_FACE('',(#528),#125,.T.);
#601=ADVANCED_FACE('',(#529,#530,#531),#126,.F.);
#602=ADVANCED_FACE('',(#532,#533),#127,.F.);
#603=ADVANCED_FACE('',(#534),#128,.F.);
#604=ADVANCED_FACE('',(#535),#575,.T.);
#605=ADVANCED_FACE('',(#536),#129,.F.);
#606=ADVANCED_FACE('',(#537),#576,.T.);
#607=ADVANCED_FACE('',(#538),#130,.T.);
#608=ADVANCED_FACE('',(#539),#577,.T.);
#609=ADVANCED_FACE('',(#540),#131,.T.);
#610=ADVANCED_FACE('',(#541),#578,.T.);
#611=ADVANCED_FACE('',(#542),#132,.T.);
#612=ADVANCED_FACE('',(#543),#579,.F.);
#613=ADVANCED_FACE('',(#544),#133,.T.);
#614=ADVANCED_FACE('',(#545),#580,.F.);
#615=ADVANCED_FACE('',(#546),#134,.F.);
#616=ADVANCED_FACE('',(#547),#581,.F.);
#617=ADVANCED_FACE('',(#548),#135,.F.);
#618=ADVANCED_FACE('',(#549),#582,.F.);
#619=ADVANCED_FACE('',(#550,#551),#583,.F.);
#620=ADVANCED_FACE('',(#552,#553),#584,.F.);
#621=ADVANCED_FACE('',(#554,#555),#585,.F.);
#622=ADVANCED_FACE('',(#556,#557),#586,.T.);
#623=ADVANCED_FACE('',(#558,#559),#136,.T.);
#624=ADVANCED_FACE('',(#560,#561),#587,.T.);
#625=ADVANCED_FACE('',(#562,#563),#137,.T.);
#626=ADVANCED_FACE('',(#564,#565),#588,.T.);
#627=ADVANCED_FACE('',(#566,#567),#138,.T.);
#628=ADVANCED_FACE('',(#568,#569),#589,.T.);
#629=ADVANCED_FACE('',(#570),#139,.T.);
#630=ADVANCED_FACE('',(#571),#140,.F.);
#631=CLOSED_SHELL('',(#590,#591,#592));
#632=CLOSED_SHELL('',(#593,#594,#595));
#633=CLOSED_SHELL('',(#596,#597,#598));
#634=CLOSED_SHELL('',(#599,#600,#601,#602,#603,#604,#605,#606,#607,#608,
#609,#610,#611,#612,#613,#614,#615,#616,#617,#618,#619,#620,#621,#622,#623,
#624,#625,#626,#627));
#635=CLOSED_SHELL('',(#628,#629,#630));
#636=STYLED_ITEM('',(#641),#710);
#637=STYLED_ITEM('',(#642),#711);
#638=STYLED_ITEM('',(#643),#712);
#639=STYLED_ITEM('',(#644),#713);
#640=STYLED_ITEM('',(#651),#714);
#641=PRESENTATION_STYLE_ASSIGNMENT((#652));
#642=PRESENTATION_STYLE_ASSIGNMENT((#653));
#643=PRESENTATION_STYLE_ASSIGNMENT((#654));
#644=PRESENTATION_STYLE_ASSIGNMENT((#655));
#645=PRESENTATION_STYLE_ASSIGNMENT((#656));
#646=PRESENTATION_STYLE_ASSIGNMENT((#657));
#647=PRESENTATION_STYLE_ASSIGNMENT((#658));
#648=PRESENTATION_STYLE_ASSIGNMENT((#659));
#649=PRESENTATION_STYLE_ASSIGNMENT((#660));
#650=PRESENTATION_STYLE_ASSIGNMENT((#661));
#651=PRESENTATION_STYLE_ASSIGNMENT((#662));
#652=SURFACE_STYLE_USAGE(.BOTH.,#663);
#653=SURFACE_STYLE_USAGE(.BOTH.,#664);
#654=SURFACE_STYLE_USAGE(.BOTH.,#665);
#655=SURFACE_STYLE_USAGE(.BOTH.,#666);
#656=SURFACE_STYLE_USAGE(.BOTH.,#667);
#657=SURFACE_STYLE_USAGE(.BOTH.,#668);
#658=SURFACE_STYLE_USAGE(.BOTH.,#669);
#659=SURFACE_STYLE_USAGE(.BOTH.,#670);
#660=SURFACE_STYLE_USAGE(.BOTH.,#671);
#661=SURFACE_STYLE_USAGE(.BOTH.,#672);
#662=SURFACE_STYLE_USAGE(.BOTH.,#673);
#663=SURFACE_SIDE_STYLE('',(#674));
#664=SURFACE_SIDE_STYLE('',(#675));
#665=SURFACE_SIDE_STYLE('',(#676));
#666=SURFACE_SIDE_STYLE('',(#677));
#667=SURFACE_SIDE_STYLE('',(#678));
#668=SURFACE_SIDE_STYLE('',(#679));
#669=SURFACE_SIDE_STYLE('',(#680));
#670=SURFACE_SIDE_STYLE('',(#681));
#671=SURFACE_SIDE_STYLE('',(#682));
#672=SURFACE_SIDE_STYLE('',(#683));
#673=SURFACE_SIDE_STYLE('',(#684));
#674=SURFACE_STYLE_FILL_AREA(#685);
#675=SURFACE_STYLE_FILL_AREA(#686);
#676=SURFACE_STYLE_FILL_AREA(#687);
#677=SURFACE_STYLE_FILL_AREA(#688);
#678=SURFACE_STYLE_FILL_AREA(#689);
#679=SURFACE_STYLE_FILL_AREA(#690);
#680=SURFACE_STYLE_FILL_AREA(#691);
#681=SURFACE_STYLE_FILL_AREA(#692);
#682=SURFACE_STYLE_FILL_AREA(#693);
#683=SURFACE_STYLE_FILL_AREA(#694);
#684=SURFACE_STYLE_FILL_AREA(#695);
#685=FILL_AREA_STYLE('',(#696));
#686=FILL_AREA_STYLE('',(#697));
#687=FILL_AREA_STYLE('',(#698));
#688=FILL_AREA_STYLE('',(#699));
#689=FILL_AREA_STYLE('',(#700));
#690=FILL_AREA_STYLE('',(#701));
#691=FILL_AREA_STYLE('',(#702));
#692=FILL_AREA_STYLE('',(#703));
#693=FILL_AREA_STYLE('',(#704));
#694=FILL_AREA_STYLE('',(#705));
#695=FILL_AREA_STYLE('',(#706));
#696=FILL_AREA_STYLE_COLOUR('',#707);
#697=FILL_AREA_STYLE_COLOUR('',#707);
#698=FILL_AREA_STYLE_COLOUR('',#707);
#699=FILL_AREA_STYLE_COLOUR('',#708);
#700=FILL_AREA_STYLE_COLOUR('',#709);
#701=FILL_AREA_STYLE_COLOUR('',#709);
#702=FILL_AREA_STYLE_COLOUR('',#709);
#703=FILL_AREA_STYLE_COLOUR('',#709);
#704=FILL_AREA_STYLE_COLOUR('',#709);
#705=FILL_AREA_STYLE_COLOUR('',#709);
#706=FILL_AREA_STYLE_COLOUR('',#707);
#707=COLOUR_RGB('',0.713725490196078,0.76078431372549,0.8);
#708=COLOUR_RGB('',0.156862745098039,0.156862745098039,0.168627450980392);
#709=COLOUR_RGB('',0.972549019607843,0.529411764705882,0.00392156862745098);
#710=MANIFOLD_SOLID_BREP('Part 6',#631);
#711=MANIFOLD_SOLID_BREP('Part 5',#632);
#712=MANIFOLD_SOLID_BREP('Part 7',#633);
#713=MANIFOLD_SOLID_BREP('Part 1',#634);
#714=MANIFOLD_SOLID_BREP('Part 8',#635);
#715=SHAPE_DEFINITION_REPRESENTATION(#1206,#721);
#716=SHAPE_DEFINITION_REPRESENTATION(#1207,#722);
#717=SHAPE_DEFINITION_REPRESENTATION(#1209,#723);
#718=SHAPE_DEFINITION_REPRESENTATION(#1211,#724);
#719=SHAPE_DEFINITION_REPRESENTATION(#1213,#725);
#720=SHAPE_DEFINITION_REPRESENTATION(#1215,#726);
#721=SHAPE_REPRESENTATION('Assembly 4',(#727,#733,#739,#745,#804,#810),
#1191);
#722=SHAPE_REPRESENTATION('Part 6',(#727),#1192);
#723=SHAPE_REPRESENTATION('Part 5',(#727),#1193);
#724=SHAPE_REPRESENTATION('Part 7',(#727),#1194);
#725=SHAPE_REPRESENTATION('Part 1',(#727),#1195);
#726=SHAPE_REPRESENTATION('Part 8',(#727),#1196);
#727=AXIS2_PLACEMENT_3D('',#1015,#811,#812);
#728=AXIS2_PLACEMENT_3D('',#1016,#813,#814);
#729=AXIS2_PLACEMENT_3D('',#1017,#815,#816);
#730=AXIS2_PLACEMENT_3D('',#1019,#817,#818);
#731=AXIS2_PLACEMENT_3D('',#1021,#819,#820);
#732=AXIS2_PLACEMENT_3D('',#1022,#821,#822);
#733=AXIS2_PLACEMENT_3D('',#1023,#823,#824);
#734=AXIS2_PLACEMENT_3D('',#1024,#825,#826);
#735=AXIS2_PLACEMENT_3D('',#1025,#827,#828);
#736=AXIS2_PLACEMENT_3D('',#1027,#829,#830);
#737=AXIS2_PLACEMENT_3D('',#1029,#831,#832);
#738=AXIS2_PLACEMENT_3D('',#1030,#833,#834);
#739=AXIS2_PLACEMENT_3D('',#1031,#835,#836);
#740=AXIS2_PLACEMENT_3D('',#1032,#837,#838);
#741=AXIS2_PLACEMENT_3D('',#1033,#839,#840);
#742=AXIS2_PLACEMENT_3D('',#1035,#841,#842);
#743=AXIS2_PLACEMENT_3D('',#1037,#843,#844);
#744=AXIS2_PLACEMENT_3D('',#1038,#845,#846);
#745=AXIS2_PLACEMENT_3D('',#1039,#847,#848);
#746=AXIS2_PLACEMENT_3D('',#1040,#849,#850);
#747=AXIS2_PLACEMENT_3D('',#1044,#852,#853);
#748=AXIS2_PLACEMENT_3D('',#1048,#855,#856);
#749=AXIS2_PLACEMENT_3D('',#1052,#858,#859);
#750=AXIS2_PLACEMENT_3D('',#1056,#861,#862);
#751=AXIS2_PLACEMENT_3D('',#1057,#863,#864);
#752=AXIS2_PLACEMENT_3D('',#1059,#865,#866);
#753=AXIS2_PLACEMENT_3D('',#1061,#867,#868);
#754=AXIS2_PLACEMENT_3D('',#1063,#869,#870);
#755=AXIS2_PLACEMENT_3D('',#1072,#875,#876);
#756=AXIS2_PLACEMENT_3D('',#1073,#877,#878);
#757=AXIS2_PLACEMENT_3D('',#1078,#880,#881);
#758=AXIS2_PLACEMENT_3D('',#1079,#882,#883);
#759=AXIS2_PLACEMENT_3D('',#1083,#885,#886);
#760=AXIS2_PLACEMENT_3D('',#1087,#888,#889);
#761=AXIS2_PLACEMENT_3D('',#1091,#891,#892);
#762=AXIS2_PLACEMENT_3D('',#1092,#893,#894);
#763=AXIS2_PLACEMENT_3D('',#1094,#895,#896);
#764=AXIS2_PLACEMENT_3D('',#1098,#898,#899);
#765=AXIS2_PLACEMENT_3D('',#1102,#901,#902);
#766=AXIS2_PLACEMENT_3D('',#1106,#904,#905);
#767=AXIS2_PLACEMENT_3D('',#1110,#907,#908);
#768=AXIS2_PLACEMENT_3D('',#1111,#909,#910);
#769=AXIS2_PLACEMENT_3D('',#1115,#912,#913);
#770=AXIS2_PLACEMENT_3D('',#1119,#915,#916);
#771=AXIS2_PLACEMENT_3D('',#1123,#918,#919);
#772=AXIS2_PLACEMENT_3D('',#1127,#921,#922);
#773=AXIS2_PLACEMENT_3D('',#1128,#923,#924);
#774=AXIS2_PLACEMENT_3D('',#1131,#927,#928);
#775=AXIS2_PLACEMENT_3D('',#1133,#930,#931);
#776=AXIS2_PLACEMENT_3D('',#1135,#933,#934);
#777=AXIS2_PLACEMENT_3D('',#1137,#936,#937);
#778=AXIS2_PLACEMENT_3D('',#1139,#939,#940);
#779=AXIS2_PLACEMENT_3D('',#1141,#942,#943);
#780=AXIS2_PLACEMENT_3D('',#1143,#945,#946);
#781=AXIS2_PLACEMENT_3D('',#1144,#947,#948);
#782=AXIS2_PLACEMENT_3D('',#1147,#951,#952);
#783=AXIS2_PLACEMENT_3D('',#1149,#954,#955);
#784=AXIS2_PLACEMENT_3D('',#1151,#957,#958);
#785=AXIS2_PLACEMENT_3D('',#1153,#960,#961);
#786=AXIS2_PLACEMENT_3D('',#1155,#963,#964);
#787=AXIS2_PLACEMENT_3D('',#1157,#966,#967);
#788=AXIS2_PLACEMENT_3D('',#1159,#969,#970);
#789=AXIS2_PLACEMENT_3D('',#1160,#971,#972);
#790=AXIS2_PLACEMENT_3D('',#1161,#973,#974);
#791=AXIS2_PLACEMENT_3D('',#1163,#975,#976);
#792=AXIS2_PLACEMENT_3D('',#1164,#977,#978);
#793=AXIS2_PLACEMENT_3D('',#1166,#979,#980);
#794=AXIS2_PLACEMENT_3D('',#1167,#981,#982);
#795=AXIS2_PLACEMENT_3D('',#1169,#983,#984);
#796=AXIS2_PLACEMENT_3D('',#1170,#985,#986);
#797=AXIS2_PLACEMENT_3D('',#1172,#987,#988);
#798=AXIS2_PLACEMENT_3D('',#1173,#989,#990);
#799=AXIS2_PLACEMENT_3D('',#1174,#991,#992);
#800=AXIS2_PLACEMENT_3D('',#1176,#993,#994);
#801=AXIS2_PLACEMENT_3D('',#1177,#995,#996);
#802=AXIS2_PLACEMENT_3D('',#1178,#997,#998);
#803=AXIS2_PLACEMENT_3D('',#1180,#999,#1000);
#804=AXIS2_PLACEMENT_3D('',#1181,#1001,#1002);
#805=AXIS2_PLACEMENT_3D('',#1182,#1003,#1004);
#806=AXIS2_PLACEMENT_3D('',#1183,#1005,#1006);
#807=AXIS2_PLACEMENT_3D('',#1185,#1007,#1008);
#808=AXIS2_PLACEMENT_3D('',#1187,#1009,#1010);
#809=AXIS2_PLACEMENT_3D('',#1188,#1011,#1012);
#810=AXIS2_PLACEMENT_3D('',#1189,#1013,#1014);
#811=DIRECTION('',(0.,0.,1.));
#812=DIRECTION('',(1.,0.,0.));
#813=DIRECTION('',(0.,0.,-1.));
#814=DIRECTION('',(-1.,0.,0.));
#815=DIRECTION('',(0.,0.,1.));
#816=DIRECTION('',(1.,0.,0.));
#817=DIRECTION('',(0.,0.,1.));
#818=DIRECTION('',(1.,0.,0.));
#819=DIRECTION('',(0.,0.,1.));
#820=DIRECTION('',(1.,0.,0.));
#821=DIRECTION('',(0.,0.,1.));
#822=DIRECTION('',(1.,0.,0.));
#823=DIRECTION('',(0.,0.,1.));
#824=DIRECTION('',(1.,0.,0.));
#825=DIRECTION('',(0.,0.,-1.));
#826=DIRECTION('',(-1.,0.,0.));
#827=DIRECTION('',(0.,0.,1.));
#828=DIRECTION('',(1.,0.,0.));
#829=DIRECTION('',(0.,0.,1.));
#830=DIRECTION('',(1.,0.,0.));
#831=DIRECTION('',(0.,0.,1.));
#832=DIRECTION('',(1.,0.,0.));
#833=DIRECTION('',(0.,0.,1.));
#834=DIRECTION('',(1.,0.,0.));
#835=DIRECTION('',(0.,0.,1.));
#836=DIRECTION('',(1.,0.,0.));
#837=DIRECTION('',(0.,0.,-1.));
#838=DIRECTION('',(-1.,0.,0.));
#839=DIRECTION('',(0.,0.,-1.));
#840=DIRECTION('',(1.,0.,0.));
#841=DIRECTION('',(0.,0.,-1.));
#842=DIRECTION('',(1.,0.,0.));
#843=DIRECTION('',(0.,0.,1.));
#844=DIRECTION('',(1.,0.,0.));
#845=DIRECTION('',(0.,0.,1.));
#846=DIRECTION('',(1.,0.,0.));
#847=DIRECTION('',(0.,0.,1.));
#848=DIRECTION('',(1.,0.,0.));
#849=DIRECTION('',(0.,-1.,0.));
#850=DIRECTION('',(1.,0.,0.));
#851=DIRECTION('',(-1.,0.,0.));
#852=DIRECTION('',(0.,-1.,0.));
#853=DIRECTION('',(0.,0.,-1.));
#854=DIRECTION('',(-2.80966309147516E-16,0.,-1.));
#855=DIRECTION('',(0.,-1.,0.));
#856=DIRECTION('',(0.,0.,-1.));
#857=DIRECTION('',(-1.,0.,0.));
#858=DIRECTION('',(0.,-1.,0.));
#859=DIRECTION('',(0.,0.,-1.));
#860=DIRECTION('',(-2.80966309147516E-16,0.,-1.));
#861=DIRECTION('',(0.,-1.,0.));
#862=DIRECTION('',(0.,0.,-1.));
#863=DIRECTION('',(0.,-1.,0.));
#864=DIRECTION('',(0.,0.,-1.));
#865=DIRECTION('',(0.,-1.,0.));
#866=DIRECTION('',(0.,0.,-1.));
#867=DIRECTION('',(0.,1.,0.));
#868=DIRECTION('',(0.,0.,-1.));
#869=DIRECTION('',(0.,0.,1.));
#870=DIRECTION('',(1.,0.,0.));
#871=DIRECTION('',(0.,-1.,0.));
#872=DIRECTION('',(-1.,0.,0.));
#873=DIRECTION('',(0.,-1.,0.));
#874=DIRECTION('',(-1.,0.,0.));
#875=DIRECTION('',(0.,-1.,0.));
#876=DIRECTION('',(1.,0.,0.));
#877=DIRECTION('',(0.,-1.,0.));
#878=DIRECTION('',(0.,0.,-1.));
#879=DIRECTION('',(-1.,0.,0.));
#880=DIRECTION('',(0.,-1.,0.));
#881=DIRECTION('',(0.,0.,-1.));
#882=DIRECTION('',(0.,-1.,0.));
#883=DIRECTION('',(0.,0.,-1.));
#884=DIRECTION('',(-2.80966309147516E-16,0.,-1.));
#885=DIRECTION('',(0.,-1.,0.));
#886=DIRECTION('',(0.,0.,-1.));
#887=DIRECTION('',(-1.,0.,0.));
#888=DIRECTION('',(0.,-1.,0.));
#889=DIRECTION('',(0.,0.,-1.));
#890=DIRECTION('',(-2.80966309147516E-16,0.,-1.));
#891=DIRECTION('',(0.,-1.,0.));
#892=DIRECTION('',(0.,0.,-1.));
#893=DIRECTION('',(0.,-1.,0.));
#894=DIRECTION('',(0.,0.,-1.));
#895=DIRECTION('',(0.,-1.,0.));
#896=DIRECTION('',(1.,0.,0.));
#897=DIRECTION('',(-1.,0.,0.));
#898=DIRECTION('',(0.,-1.,0.));
#899=DIRECTION('',(0.,0.,-1.));
#900=DIRECTION('',(-2.80966309147516E-16,0.,-1.));
#901=DIRECTION('',(0.,-1.,0.));
#902=DIRECTION('',(0.,0.,-1.));
#903=DIRECTION('',(-1.,0.,0.));
#904=DIRECTION('',(0.,-1.,0.));
#905=DIRECTION('',(0.,0.,-1.));
#906=DIRECTION('',(-2.80966309147516E-16,0.,-1.));
#907=DIRECTION('',(0.,-1.,0.));
#908=DIRECTION('',(0.,0.,-1.));
#909=DIRECTION('',(0.,-1.,0.));
#910=DIRECTION('',(0.,0.,-1.));
#911=DIRECTION('',(-1.,0.,0.));
#912=DIRECTION('',(0.,-1.,0.));
#913=DIRECTION('',(0.,0.,-1.));
#914=DIRECTION('',(-2.80966309147516E-16,0.,-1.));
#915=DIRECTION('',(0.,-1.,0.));
#916=DIRECTION('',(0.,0.,-1.));
#917=DIRECTION('',(-1.,0.,0.));
#918=DIRECTION('',(0.,-1.,0.));
#919=DIRECTION('',(0.,0.,-1.));
#920=DIRECTION('',(-2.80966309147516E-16,0.,-1.));
#921=DIRECTION('',(0.,-1.,0.));
#922=DIRECTION('',(0.,0.,-1.));
#923=DIRECTION('',(0.,0.,1.));
#924=DIRECTION('',(1.,0.,0.));
#925=DIRECTION('',(0.,-1.,0.));
#926=DIRECTION('',(0.,-1.,0.));
#927=DIRECTION('',(0.,-1.,0.));
#928=DIRECTION('',(0.,0.,-1.));
#929=DIRECTION('',(0.,-1.,0.));
#930=DIRECTION('',(-1.,0.,2.80966309147516E-16));
#931=DIRECTION('',(2.80966309147516E-16,0.,1.));
#932=DIRECTION('',(0.,-1.,0.));
#933=DIRECTION('',(0.,-1.,0.));
#934=DIRECTION('',(0.,0.,-1.));
#935=DIRECTION('',(0.,-1.,0.));
#936=DIRECTION('',(0.,0.,1.));
#937=DIRECTION('',(1.,0.,0.));
#938=DIRECTION('',(0.,-1.,0.));
#939=DIRECTION('',(0.,-1.,0.));
#940=DIRECTION('',(0.,0.,-1.));
#941=DIRECTION('',(0.,-1.,0.));
#942=DIRECTION('',(-1.,0.,2.80966309147516E-16));
#943=DIRECTION('',(2.80966309147516E-16,0.,1.));
#944=DIRECTION('',(0.,-1.,0.));
#945=DIRECTION('',(0.,-1.,0.));
#946=DIRECTION('',(0.,0.,-1.));
#947=DIRECTION('',(0.,0.,1.));
#948=DIRECTION('',(1.,0.,0.));
#949=DIRECTION('',(0.,-1.,0.));
#950=DIRECTION('',(0.,1.,0.));
#951=DIRECTION('',(0.,-1.,0.));
#952=DIRECTION('',(0.,0.,-1.));
#953=DIRECTION('',(0.,-1.,0.));
#954=DIRECTION('',(-1.,0.,2.80966309147516E-16));
#955=DIRECTION('',(2.80966309147516E-16,0.,1.));
#956=DIRECTION('',(0.,1.,0.));
#957=DIRECTION('',(0.,-1.,0.));
#958=DIRECTION('',(0.,0.,-1.));
#959=DIRECTION('',(0.,-1.,0.));
#960=DIRECTION('',(0.,0.,1.));
#961=DIRECTION('',(1.,0.,0.));
#962=DIRECTION('',(0.,1.,0.));
#963=DIRECTION('',(0.,-1.,0.));
#964=DIRECTION('',(0.,0.,-1.));
#965=DIRECTION('',(0.,-1.,0.));
#966=DIRECTION('',(-1.,0.,2.80966309147516E-16));
#967=DIRECTION('',(2.80966309147516E-16,0.,1.));
#968=DIRECTION('',(0.,1.,0.));
#969=DIRECTION('',(0.,-1.,0.));
#970=DIRECTION('',(0.,0.,-1.));
#971=DIRECTION('',(0.,-1.,0.));
#972=DIRECTION('',(0.,0.,-1.));
#973=DIRECTION('',(0.,-1.,0.));
#974=DIRECTION('',(0.,0.,-1.));
#975=DIRECTION('',(0.,-1.,0.));
#976=DIRECTION('',(0.,0.,-1.));
#977=DIRECTION('',(0.,1.,0.));
#978=DIRECTION('',(0.,0.,-1.));
#979=DIRECTION('',(0.,-1.,0.));
#980=DIRECTION('',(0.,0.,-1.));
#981=DIRECTION('',(0.,-1.,0.));
#982=DIRECTION('',(0.,0.,-1.));
#983=DIRECTION('',(0.,1.,0.));
#984=DIRECTION('',(0.,0.,1.));
#985=DIRECTION('',(0.,-1.,0.));
#986=DIRECTION('',(0.,0.,-1.));
#987=DIRECTION('',(0.,-1.,0.));
#988=DIRECTION('',(1.,0.,0.));
#989=DIRECTION('',(0.,1.,0.));
#990=DIRECTION('',(0.,0.,1.));
#991=DIRECTION('',(0.,-1.,0.));
#992=DIRECTION('',(0.,0.,-1.));
#993=DIRECTION('',(0.,-1.,0.));
#994=DIRECTION('',(1.,0.,0.));
#995=DIRECTION('',(0.,1.,0.));
#996=DIRECTION('',(0.,0.,1.));
#997=DIRECTION('',(0.,1.,0.));
#998=DIRECTION('',(0.,0.,-1.));
#999=DIRECTION('',(0.,-1.,0.));
#1000=DIRECTION('',(1.,0.,0.));
#1001=DIRECTION('',(0.,0.,1.));
#1002=DIRECTION('',(1.,0.,0.));
#1003=DIRECTION('',(0.,0.,-1.));
#1004=DIRECTION('',(-1.,0.,0.));
#1005=DIRECTION('',(0.,0.,-1.));
#1006=DIRECTION('',(1.,0.,0.));
#1007=DIRECTION('',(0.,0.,-1.));
#1008=DIRECTION('',(1.,0.,0.));
#1009=DIRECTION('',(0.,0.,1.));
#1010=DIRECTION('',(1.,0.,0.));
#1011=DIRECTION('',(0.,0.,1.));
#1012=DIRECTION('',(1.,0.,0.));
#1013=DIRECTION('',(0.,0.,1.));
#1014=DIRECTION('',(1.,0.,0.));
#1015=CARTESIAN_POINT('',(0.,0.,0.));
#1016=CARTESIAN_POINT('',(-0.00501692465490825,-0.0697711651706171,0.069596));
#1017=CARTESIAN_POINT('',(-0.00501692465490825,-0.0697711651706171,0.069596));
#1018=CARTESIAN_POINT('',(-0.00247692465490825,-0.0697711651706171,0.069596));
#1019=CARTESIAN_POINT('',(-0.00501692465490825,-0.0697711651706171,0.057912));
#1020=CARTESIAN_POINT('',(-0.00247692465490825,-0.0697711651706171,0.057912));
#1021=CARTESIAN_POINT('',(1.38777878078145E-17,0.,0.069596));
#1022=CARTESIAN_POINT('',(1.38777878078145E-17,0.,0.057912));
#1023=CARTESIAN_POINT('',(-0.0207570783516096,0.0728465878026964,-0.00974279782905577));
#1024=CARTESIAN_POINT('',(-0.00501692465490825,-0.0774060821352483,0.069596));
#1025=CARTESIAN_POINT('',(-0.00501692465490825,-0.0774060821352483,0.069596));
#1026=CARTESIAN_POINT('',(-0.00247692465490825,-0.0774060821352483,0.069596));
#1027=CARTESIAN_POINT('',(-0.00501692465490825,-0.0774060821352483,0.057912));
#1028=CARTESIAN_POINT('',(-0.00247692465490825,-0.0774060821352483,0.057912));
#1029=CARTESIAN_POINT('',(1.38777878078145E-17,0.,0.069596));
#1030=CARTESIAN_POINT('',(1.38777878078145E-17,0.,0.057912));
#1031=CARTESIAN_POINT('',(-0.0206934371971058,0.0726919204963735,-0.00967448253536219));
#1032=CARTESIAN_POINT('',(0.00501692465490825,-0.0774060821352483,0.069596));
#1033=CARTESIAN_POINT('',(0.00501692465490825,-0.0774060821352483,0.069596));
#1034=CARTESIAN_POINT('',(0.00755692465490825,-0.0774060821352483,0.069596));
#1035=CARTESIAN_POINT('',(0.00501692465490825,-0.0774060821352483,0.057912));
#1036=CARTESIAN_POINT('',(0.00755692465490825,-0.0774060821352483,0.057912));
#1037=CARTESIAN_POINT('',(1.38777878078145E-17,0.,0.069596));
#1038=CARTESIAN_POINT('',(1.38777878078145E-17,0.,0.057912));
#1039=CARTESIAN_POINT('',(-0.0406762113141192,0.0729466692797235,-0.00962248158702848));
#1040=CARTESIAN_POINT('',(3.46944695195361E-18,0.,0.));
#1041=CARTESIAN_POINT('',(0.,0.,-0.02032));
#1042=CARTESIAN_POINT('',(0.017428266817044,0.,-0.02032));
#1043=CARTESIAN_POINT('',(-0.017428266817044,0.,-0.02032));
#1044=CARTESIAN_POINT('',(0.017428266817044,0.,-0.0123482668170441));
#1045=CARTESIAN_POINT('',(0.0254,0.,-0.0123482668170441));
#1046=CARTESIAN_POINT('',(0.0254,0.,-1.7347234759768E-18));
#1047=CARTESIAN_POINT('',(0.0254,0.,0.0123482668170441));
#1048=CARTESIAN_POINT('',(0.017428266817044,0.,0.0123482668170441));
#1049=CARTESIAN_POINT('',(0.017428266817044,0.,0.02032));
#1050=CARTESIAN_POINT('',(6.93889390390723E-18,0.,0.02032));
#1051=CARTESIAN_POINT('',(-0.017428266817044,0.,0.02032));
#1052=CARTESIAN_POINT('',(-0.017428266817044,0.,0.0123482668170441));
#1053=CARTESIAN_POINT('',(-0.0254,0.,0.0123482668170441));
#1054=CARTESIAN_POINT('',(-0.0254,0.,5.20417042793042E-18));
#1055=CARTESIAN_POINT('',(-0.0254,0.,-0.012348266817044));
#1056=CARTESIAN_POINT('',(-0.017428266817044,0.,-0.0123482668170441));
#1057=CARTESIAN_POINT('',(-0.012573,0.,0.00749779073521495));
#1058=CARTESIAN_POINT('',(-0.012573,0.,0.00154150151318933));
#1059=CARTESIAN_POINT('',(0.,0.,-0.0110447192564607));
#1060=CARTESIAN_POINT('',(0.,0.,-0.0195335381194338));
#1061=CARTESIAN_POINT('',(0.012573,0.,0.00749779073521495));
#1062=CARTESIAN_POINT('',(0.012573,0.,0.00154150151318933));
#1063=CARTESIAN_POINT('',(0.,0.021844,-0.01778));
#1064=CARTESIAN_POINT('',(-0.00356376111793539,0.0686351406993093,-0.01778));
#1065=CARTESIAN_POINT('',(-0.00356376111793539,0.021844,-0.01778));
#1066=CARTESIAN_POINT('',(-0.00356376111793539,0.00254,-0.01778));
#1067=CARTESIAN_POINT('',(3.46944695195361E-18,0.021844,-0.01778));
#1068=CARTESIAN_POINT('',(-0.017428266817044,0.021844,-0.01778));
#1069=CARTESIAN_POINT('',(-0.017428266817044,0.021844,-0.01778));
#1070=CARTESIAN_POINT('',(-0.017428266817044,0.00254,-0.01778));
#1071=CARTESIAN_POINT('',(3.46944695195361E-18,0.00254,-0.01778));
#1072=CARTESIAN_POINT('',(3.46944695195361E-18,0.00254,0.));
#1073=CARTESIAN_POINT('',(0.012573,0.00254,0.00749779073521495));
#1074=CARTESIAN_POINT('',(0.012573,0.00254,0.00254479073521495));
#1075=CARTESIAN_POINT('',(3.46944695195361E-18,0.00254,-0.01778));
#1076=CARTESIAN_POINT('',(0.017428266817044,0.00254,-0.01778));
#1077=CARTESIAN_POINT('',(0.00356376111793539,0.00254,-0.01778));
#1078=CARTESIAN_POINT('',(0.,0.00254,-0.0110447192564607));
#1079=CARTESIAN_POINT('',(-0.017428266817044,0.00254,-0.0123482668170441));
#1080=CARTESIAN_POINT('',(-0.02286,0.00254,-0.012348266817044));
#1081=CARTESIAN_POINT('',(-0.02286,0.00254,6.42288982711222E-18));
#1082=CARTESIAN_POINT('',(-0.02286,0.00254,0.0123482668170441));
#1083=CARTESIAN_POINT('',(-0.017428266817044,0.00254,0.0123482668170441));
#1084=CARTESIAN_POINT('',(-0.017428266817044,0.00254,0.01778));
#1085=CARTESIAN_POINT('',(3.46944695195361E-18,0.00254,0.01778));
#1086=CARTESIAN_POINT('',(0.017428266817044,0.00254,0.01778));
#1087=CARTESIAN_POINT('',(0.017428266817044,0.00254,0.0123482668170441));
#1088=CARTESIAN_POINT('',(0.02286,0.00254,0.0123482668170441));
#1089=CARTESIAN_POINT('',(0.02286,0.00254,-6.42288982711222E-18));
#1090=CARTESIAN_POINT('',(0.02286,0.00254,-0.0123482668170441));
#1091=CARTESIAN_POINT('',(0.017428266817044,0.00254,-0.0123482668170441));
#1092=CARTESIAN_POINT('',(-0.012573,0.00254,0.00749779073521495));
#1093=CARTESIAN_POINT('',(-0.012573,0.00254,0.00254479073521495));
#1094=CARTESIAN_POINT('',(3.46944695195361E-18,0.021844,0.));
#1095=CARTESIAN_POINT('',(0.,0.021844,-0.02032));
#1096=CARTESIAN_POINT('',(0.017428266817044,0.021844,-0.02032));
#1097=CARTESIAN_POINT('',(-0.017428266817044,0.021844,-0.02032));
#1098=CARTESIAN_POINT('',(-0.017428266817044,0.021844,-0.0123482668170441));
#1099=CARTESIAN_POINT('',(-0.0254,0.021844,-0.012348266817044));
#1100=CARTESIAN_POINT('',(-0.0254,0.021844,5.20417042793042E-18));
#1101=CARTESIAN_POINT('',(-0.0254,0.021844,0.0123482668170441));
#1102=CARTESIAN_POINT('',(-0.017428266817044,0.021844,0.0123482668170441));
#1103=CARTESIAN_POINT('',(-0.017428266817044,0.021844,0.02032));
#1104=CARTESIAN_POINT('',(6.93889390390723E-18,0.021844,0.02032));
#1105=CARTESIAN_POINT('',(0.017428266817044,0.021844,0.02032));
#1106=CARTESIAN_POINT('',(0.017428266817044,0.021844,0.0123482668170441));
#1107=CARTESIAN_POINT('',(0.0254,0.021844,0.0123482668170441));
#1108=CARTESIAN_POINT('',(0.0254,0.021844,-1.7347234759768E-18));
#1109=CARTESIAN_POINT('',(0.0254,0.021844,-0.0123482668170441));
#1110=CARTESIAN_POINT('',(0.017428266817044,0.021844,-0.0123482668170441));
#1111=CARTESIAN_POINT('',(0.,0.021844,-0.0110447192564607));
#1112=CARTESIAN_POINT('',(0.00356376111793539,0.021844,-0.01778));
#1113=CARTESIAN_POINT('',(3.46944695195361E-18,0.021844,-0.01778));
#1114=CARTESIAN_POINT('',(0.017428266817044,0.021844,-0.01778));
#1115=CARTESIAN_POINT('',(0.017428266817044,0.021844,-0.0123482668170441));
#1116=CARTESIAN_POINT('',(0.02286,0.021844,-0.0123482668170441));
#1117=CARTESIAN_POINT('',(0.02286,0.021844,-6.42288982711222E-18));
#1118=CARTESIAN_POINT('',(0.02286,0.021844,0.0123482668170441));
#1119=CARTESIAN_POINT('',(0.017428266817044,0.021844,0.0123482668170441));
#1120=CARTESIAN_POINT('',(0.017428266817044,0.021844,0.01778));
#1121=CARTESIAN_POINT('',(3.46944695195361E-18,0.021844,0.01778));
#1122=CARTESIAN_POINT('',(-0.017428266817044,0.021844,0.01778));
#1123=CARTESIAN_POINT('',(-0.017428266817044,0.021844,0.0123482668170441));
#1124=CARTESIAN_POINT('',(-0.02286,0.021844,0.0123482668170441));
#1125=CARTESIAN_POINT('',(-0.02286,0.021844,6.42288982711222E-18));
#1126=CARTESIAN_POINT('',(-0.02286,0.021844,-0.0123482668170441));
#1127=CARTESIAN_POINT('',(-0.017428266817044,0.021844,-0.0123482668170441));
#1128=CARTESIAN_POINT('',(0.,0.021844,-0.02032));
#1129=CARTESIAN_POINT('',(-0.017428266817044,0.021844,-0.02032));
#1130=CARTESIAN_POINT('',(0.017428266817044,0.021844,-0.02032));
#1131=CARTESIAN_POINT('',(0.017428266817044,0.021844,-0.0123482668170441));
#1132=CARTESIAN_POINT('',(0.0254,0.021844,-0.0123482668170441));
#1133=CARTESIAN_POINT('',(0.0254,0.021844,-1.7347234759768E-18));
#1134=CARTESIAN_POINT('',(0.0254,0.021844,0.0123482668170441));
#1135=CARTESIAN_POINT('',(0.017428266817044,0.021844,0.0123482668170441));
#1136=CARTESIAN_POINT('',(0.017428266817044,0.021844,0.02032));
#1137=CARTESIAN_POINT('',(6.93889390390723E-18,0.021844,0.02032));
#1138=CARTESIAN_POINT('',(-0.017428266817044,0.021844,0.02032));
#1139=CARTESIAN_POINT('',(-0.017428266817044,0.021844,0.0123482668170441));
#1140=CARTESIAN_POINT('',(-0.0254,0.021844,0.0123482668170441));
#1141=CARTESIAN_POINT('',(-0.0254,0.021844,5.20417042793042E-18));
#1142=CARTESIAN_POINT('',(-0.0254,0.021844,-0.012348266817044));
#1143=CARTESIAN_POINT('',(-0.017428266817044,0.021844,-0.0123482668170441));
#1144=CARTESIAN_POINT('',(0.,0.021844,-0.01778));
#1145=CARTESIAN_POINT('',(0.00356376111793539,0.0686351406993093,-0.01778));
#1146=CARTESIAN_POINT('',(0.017428266817044,0.021844,-0.01778));
#1147=CARTESIAN_POINT('',(0.017428266817044,0.021844,-0.0123482668170441));
#1148=CARTESIAN_POINT('',(0.02286,0.021844,-0.0123482668170441));
#1149=CARTESIAN_POINT('',(0.02286,0.021844,-1.02106905074212E-18));
#1150=CARTESIAN_POINT('',(0.02286,0.021844,0.0123482668170441));
#1151=CARTESIAN_POINT('',(0.017428266817044,0.021844,0.0123482668170441));
#1152=CARTESIAN_POINT('',(0.017428266817044,0.021844,0.01778));
#1153=CARTESIAN_POINT('',(6.93889390390723E-18,0.021844,0.01778));
#1154=CARTESIAN_POINT('',(-0.017428266817044,0.021844,0.01778));
#1155=CARTESIAN_POINT('',(-0.017428266817044,0.021844,0.0123482668170441));
#1156=CARTESIAN_POINT('',(-0.02286,0.021844,0.0123482668170441));
#1157=CARTESIAN_POINT('',(-0.02286,0.021844,4.49051600269573E-18));
#1158=CARTESIAN_POINT('',(-0.02286,0.021844,-0.012348266817044));
#1159=CARTESIAN_POINT('',(-0.017428266817044,0.021844,-0.0123482668170441));
#1160=CARTESIAN_POINT('',(0.012573,0.0686351406993093,0.00749779073521495));
#1161=CARTESIAN_POINT('',(0.012573,-0.0019,0.00749779073521495));
#1162=CARTESIAN_POINT('',(0.012573,-0.0019,0.00254479073521495));
#1163=CARTESIAN_POINT('',(-0.012573,0.0686351406993093,0.00749779073521495));
#1164=CARTESIAN_POINT('',(-0.012573,-0.0019,0.00749779073521495));
#1165=CARTESIAN_POINT('',(-0.012573,-0.0019,0.00254479073521495));
#1166=CARTESIAN_POINT('',(0.,0.0686351406993093,-0.0110447192564607));
#1167=CARTESIAN_POINT('',(0.,-0.0019,-0.0110447192564607));
#1168=CARTESIAN_POINT('',(0.,-0.0019,-0.0186647192564607));
#1169=CARTESIAN_POINT('',(-0.012573,-0.0019,0.00749779073521495));
#1170=CARTESIAN_POINT('',(-0.012573,-0.0019,0.00749779073521495));
#1171=CARTESIAN_POINT('',(-0.012573,-0.0019,0.00154150151318933));
#1172=CARTESIAN_POINT('',(0.,-0.0019,3.46944695195361E-18));
#1173=CARTESIAN_POINT('',(0.,-0.0019,-0.0110447192564607));
#1174=CARTESIAN_POINT('',(0.,-0.0019,-0.0110447192564607));
#1175=CARTESIAN_POINT('',(0.,-0.0019,-0.0195335381194338));
#1176=CARTESIAN_POINT('',(0.,-0.0019,3.46944695195361E-18));
#1177=CARTESIAN_POINT('',(0.012573,-0.0019,0.00749779073521495));
#1178=CARTESIAN_POINT('',(0.012573,-0.0019,0.00749779073521495));
#1179=CARTESIAN_POINT('',(0.012573,-0.0019,0.00154150151318933));
#1180=CARTESIAN_POINT('',(0.,-0.0019,3.46944695195361E-18));
#1181=CARTESIAN_POINT('',(-0.0303370784968138,-0.00997200013198359,0.0803797009735107));
#1182=CARTESIAN_POINT('',(0.00501692465490825,-0.0697711651706171,0.069596));
#1183=CARTESIAN_POINT('',(0.00501692465490825,-0.0697711651706171,0.069596));
#1184=CARTESIAN_POINT('',(0.00755692465490825,-0.0697711651706171,0.069596));
#1185=CARTESIAN_POINT('',(0.00501692465490825,-0.0697711651706171,0.057912));
#1186=CARTESIAN_POINT('',(0.00755692465490825,-0.0697711651706171,0.057912));
#1187=CARTESIAN_POINT('',(1.38777878078145E-17,0.,0.069596));
#1188=CARTESIAN_POINT('',(1.38777878078145E-17,0.,0.057912));
#1189=CARTESIAN_POINT('',(-0.0407126942461652,0.0726739891210081,-0.00980271287918087));
#1190=MECHANICAL_DESIGN_GEOMETRIC_PRESENTATION_REPRESENTATION('',(#636,
#637,#638,#639,#10,#11,#12,#13,#14,#15,#640),#1191);
#1191=(
GEOMETRIC_REPRESENTATION_CONTEXT(3)
GLOBAL_UNCERTAINTY_ASSIGNED_CONTEXT((#1197))
GLOBAL_UNIT_ASSIGNED_CONTEXT((#1205,#1204,#1203))
REPRESENTATION_CONTEXT('Assembly 4','TOP_LEVEL_ASSEMBLY_PART')
);
#1192=(
GEOMETRIC_REPRESENTATION_CONTEXT(3)
GLOBAL_UNCERTAINTY_ASSIGNED_CONTEXT((#1198))
GLOBAL_UNIT_ASSIGNED_CONTEXT((#1205,#1204,#1203))
REPRESENTATION_CONTEXT('Part 6','COMPONENT_PART')
);
#1193=(
GEOMETRIC_REPRESENTATION_CONTEXT(3)
GLOBAL_UNCERTAINTY_ASSIGNED_CONTEXT((#1199))
GLOBAL_UNIT_ASSIGNED_CONTEXT((#1205,#1204,#1203))
REPRESENTATION_CONTEXT('Part 5','COMPONENT_PART')
);
#1194=(
GEOMETRIC_REPRESENTATION_CONTEXT(3)
GLOBAL_UNCERTAINTY_ASSIGNED_CONTEXT((#1200))
GLOBAL_UNIT_ASSIGNED_CONTEXT((#1205,#1204,#1203))
REPRESENTATION_CONTEXT('Part 7','COMPONENT_PART')
);
#1195=(
GEOMETRIC_REPRESENTATION_CONTEXT(3)
GLOBAL_UNCERTAINTY_ASSIGNED_CONTEXT((#1201))
GLOBAL_UNIT_ASSIGNED_CONTEXT((#1205,#1204,#1203))
REPRESENTATION_CONTEXT('Part 1','COMPONENT_PART')
);
#1196=(
GEOMETRIC_REPRESENTATION_CONTEXT(3)
GLOBAL_UNCERTAINTY_ASSIGNED_CONTEXT((#1202))
GLOBAL_UNIT_ASSIGNED_CONTEXT((#1205,#1204,#1203))
REPRESENTATION_CONTEXT('Part 8','COMPONENT_PART')
);
#1197=UNCERTAINTY_MEASURE_WITH_UNIT(LENGTH_MEASURE(1.E-8),#1205,
'DISTANCE_ACCURACY_VALUE','Maximum Tolerance applied to model');
#1198=UNCERTAINTY_MEASURE_WITH_UNIT(LENGTH_MEASURE(1.E-8),#1205,
'DISTANCE_ACCURACY_VALUE','Maximum Tolerance applied to model');
#1199=UNCERTAINTY_MEASURE_WITH_UNIT(LENGTH_MEASURE(1.E-8),#1205,
'DISTANCE_ACCURACY_VALUE','Maximum Tolerance applied to model');
#1200=UNCERTAINTY_MEASURE_WITH_UNIT(LENGTH_MEASURE(1.E-8),#1205,
'DISTANCE_ACCURACY_VALUE','Maximum Tolerance applied to model');
#1201=UNCERTAINTY_MEASURE_WITH_UNIT(LENGTH_MEASURE(1.E-8),#1205,
'DISTANCE_ACCURACY_VALUE','Maximum Tolerance applied to model');
#1202=UNCERTAINTY_MEASURE_WITH_UNIT(LENGTH_MEASURE(1.E-8),#1205,
'DISTANCE_ACCURACY_VALUE','Maximum Tolerance applied to model');
#1203=(
NAMED_UNIT(*)
SI_UNIT($,.STERADIAN.)
SOLID_ANGLE_UNIT()
);
#1204=(
NAMED_UNIT(*)
PLANE_ANGLE_UNIT()
SI_UNIT($,.RADIAN.)
);
#1205=(
LENGTH_UNIT()
NAMED_UNIT(*)
SI_UNIT($,.METRE.)
);
#1206=PRODUCT_DEFINITION_SHAPE('','',#1217);
#1207=PRODUCT_DEFINITION_SHAPE('','',#1218);
#1208=PRODUCT_DEFINITION_SHAPE(' ','NAUO PRDDFN',#93);
#1209=PRODUCT_DEFINITION_SHAPE('','',#1219);
#1210=PRODUCT_DEFINITION_SHAPE(' ','NAUO PRDDFN',#94);
#1211=PRODUCT_DEFINITION_SHAPE('','',#1220);
#1212=PRODUCT_DEFINITION_SHAPE(' ','NAUO PRDDFN',#95);
#1213=PRODUCT_DEFINITION_SHAPE('','',#1221);
#1214=PRODUCT_DEFINITION_SHAPE(' ','NAUO PRDDFN',#96);
#1215=PRODUCT_DEFINITION_SHAPE('','',#1222);
#1216=PRODUCT_DEFINITION_SHAPE(' ','NAUO PRDDFN',#97);
#1217=PRODUCT_DEFINITION('','',#1229,#1223);
#1218=PRODUCT_DEFINITION('','',#1230,#1224);
#1219=PRODUCT_DEFINITION('','',#1231,#1225);
#1220=PRODUCT_DEFINITION('','',#1232,#1226);
#1221=PRODUCT_DEFINITION('','',#1233,#1227);
#1222=PRODUCT_DEFINITION('','',#1234,#1228);
#1223=PRODUCT_DEFINITION_CONTEXT('',#1260,'design');
#1224=PRODUCT_DEFINITION_CONTEXT('',#1260,'design');
#1225=PRODUCT_DEFINITION_CONTEXT('',#1260,'design');
#1226=PRODUCT_DEFINITION_CONTEXT('',#1260,'design');
#1227=PRODUCT_DEFINITION_CONTEXT('',#1260,'design');
#1228=PRODUCT_DEFINITION_CONTEXT('',#1260,'design');
#1229=PRODUCT_DEFINITION_FORMATION_WITH_SPECIFIED_SOURCE('','',#1241,
 .NOT_KNOWN.);
#1230=PRODUCT_DEFINITION_FORMATION_WITH_SPECIFIED_SOURCE('','',#1242,
 .NOT_KNOWN.);
#1231=PRODUCT_DEFINITION_FORMATION_WITH_SPECIFIED_SOURCE('','',#1243,
 .NOT_KNOWN.);
#1232=PRODUCT_DEFINITION_FORMATION_WITH_SPECIFIED_SOURCE('','',#1244,
 .NOT_KNOWN.);
#1233=PRODUCT_DEFINITION_FORMATION_WITH_SPECIFIED_SOURCE('','',#1245,
 .NOT_KNOWN.);
#1234=PRODUCT_DEFINITION_FORMATION_WITH_SPECIFIED_SOURCE('','',#1246,
 .NOT_KNOWN.);
#1235=PRODUCT_RELATED_PRODUCT_CATEGORY('','',(#1241));
#1236=PRODUCT_RELATED_PRODUCT_CATEGORY('','',(#1242));
#1237=PRODUCT_RELATED_PRODUCT_CATEGORY('','',(#1243));
#1238=PRODUCT_RELATED_PRODUCT_CATEGORY('','',(#1244));
#1239=PRODUCT_RELATED_PRODUCT_CATEGORY('','',(#1245));
#1240=PRODUCT_RELATED_PRODUCT_CATEGORY('','',(#1246));
#1241=PRODUCT('Assembly 4','Assembly 4','Assembly 4',(#1253));
#1242=PRODUCT('Part 6','Part 6','Part 6',(#1254));
#1243=PRODUCT('Part 5','Part 5','Part 5',(#1255));
#1244=PRODUCT('Part 7','Part 7','Part 7',(#1256));
#1245=PRODUCT('Part 1','Part 1','Part 1',(#1257));
#1246=PRODUCT('Part 8','Part 8','Part 8',(#1258));
#1247=PRODUCT_CATEGORY('','');
#1248=PRODUCT_CATEGORY('','');
#1249=PRODUCT_CATEGORY('','');
#1250=PRODUCT_CATEGORY('','');
#1251=PRODUCT_CATEGORY('','');
#1252=PRODUCT_CATEGORY('','');
#1253=PRODUCT_CONTEXT('',#1260,'mechanical');
#1254=PRODUCT_CONTEXT('',#1260,'mechanical');
#1255=PRODUCT_CONTEXT('',#1260,'mechanical');
#1256=PRODUCT_CONTEXT('',#1260,'mechanical');
#1257=PRODUCT_CONTEXT('',#1260,'mechanical');
#1258=PRODUCT_CONTEXT('',#1260,'mechanical');
#1259=APPLICATION_PROTOCOL_DEFINITION('international standard',
'ap242_managed_model_based_3d_engineering',2020,#1260);
#1260=APPLICATION_CONTEXT('managed model based 3d engineering');
ENDSEC;
END-ISO-10303-21;
