ISO-10303-21;
HEADER;
/* Generated by software containing ST-Developer
 * from STEP Tools, Inc. (www.steptools.com) 
 */
/* OPTION: using custom renumber hook */

FILE_DESCRIPTION(
/* description */ ('STEP AP242 Edition 2',
'CAx-IF Rec.Pracs.---Representation and Presentation of Product Manufa
cturing Information (PMI)---4.0---2014-10-13',
'CAx-IF Rec.Pracs.---3D Tessellated Geometry---0.4---2014-09-14','2;1',
'CAx-IF Rec.Pracs.---User Defined Attributes---1.5---2016-08-15'),
/* implementation_level */ '2;1');

FILE_NAME(
/* name */ '6a3f743b59c2af4877740d1a',
/* time_stamp */ '2026-06-27T06:56:59Z',
/* author */ (''),
/* organization */ (''),
/* preprocessor_version */ 'ST-DEVELOPER v20',
/* originating_system */ 'ONSHAPE BY PTC INC, 1.217',
/* authorisation */ '  ');

FILE_SCHEMA (('AP242_MANAGED_MODEL_BASED_3D_ENGINEERING_MIM_LF { 1 0 10303 442 3 1 4 }'));
ENDSEC;

DATA;
#10=OVER_RIDING_STYLED_ITEM('',(#813),#792,#809);
#11=OVER_RIDING_STYLED_ITEM('',(#814),#793,#809);
#12=CONTEXT_DEPENDENT_SHAPE_REPRESENTATION(#44,#1424);
#13=CONTEXT_DEPENDENT_SHAPE_REPRESENTATION(#45,#1425);
#14=CONTEXT_DEPENDENT_SHAPE_REPRESENTATION(#46,#1427);
#15=CONTEXT_DEPENDENT_SHAPE_REPRESENTATION(#47,#1429);
#16=CONTEXT_DEPENDENT_SHAPE_REPRESENTATION(#48,#1430);
#17=CONTEXT_DEPENDENT_SHAPE_REPRESENTATION(#49,#1431);
#18=CONTEXT_DEPENDENT_SHAPE_REPRESENTATION(#50,#1432);
#19=CONTEXT_DEPENDENT_SHAPE_REPRESENTATION(#51,#1433);
#20=CONTEXT_DEPENDENT_SHAPE_REPRESENTATION(#52,#1434);
#21=CONTEXT_DEPENDENT_SHAPE_REPRESENTATION(#53,#1435);
#22=CONTEXT_DEPENDENT_SHAPE_REPRESENTATION(#54,#1436);
#23=CONTEXT_DEPENDENT_SHAPE_REPRESENTATION(#55,#1437);
#24=CONTEXT_DEPENDENT_SHAPE_REPRESENTATION(#56,#1438);
#25=CONTEXT_DEPENDENT_SHAPE_REPRESENTATION(#57,#1439);
#26=CONTEXT_DEPENDENT_SHAPE_REPRESENTATION(#58,#1440);
#27=CONTEXT_DEPENDENT_SHAPE_REPRESENTATION(#59,#1441);
#28=NEXT_ASSEMBLY_USAGE_OCCURRENCE('NAUO1','Part 1','Part 1',#1442,#1443,
'');
#29=NEXT_ASSEMBLY_USAGE_OCCURRENCE('NAUO2','Part 1','Part 1',#1442,#1443,
'');
#30=NEXT_ASSEMBLY_USAGE_OCCURRENCE('NAUO3','Part 1','Part 1',#1442,#1444,
'');
#31=NEXT_ASSEMBLY_USAGE_OCCURRENCE('NAUO4','Part 1','Part 1',#1442,#1445,
'');
#32=NEXT_ASSEMBLY_USAGE_OCCURRENCE('NAUO5','Part 1','Part 1',#1442,#1445,
'');
#33=NEXT_ASSEMBLY_USAGE_OCCURRENCE('NAUO6','Part 1','Part 1',#1442,#1445,
'');
#34=NEXT_ASSEMBLY_USAGE_OCCURRENCE('NAUO7','Part 1','Part 1',#1442,#1444,
'');
#35=NEXT_ASSEMBLY_USAGE_OCCURRENCE('NAUO8','Part 1','Part 1',#1442,#1445,
'');
#36=NEXT_ASSEMBLY_USAGE_OCCURRENCE('NAUO9','Part 1','Part 1',#1442,#1445,
'');
#37=NEXT_ASSEMBLY_USAGE_OCCURRENCE('NAUO10','Part 1','Part 1',#1442,#1443,
'');
#38=NEXT_ASSEMBLY_USAGE_OCCURRENCE('NAUO11','Part 1','Part 1',#1442,#1444,
'');
#39=NEXT_ASSEMBLY_USAGE_OCCURRENCE('NAUO12','Part 1','Part 1',#1442,#1445,
'');
#40=NEXT_ASSEMBLY_USAGE_OCCURRENCE('NAUO13','Part 1','Part 1',#1442,#1444,
'');
#41=NEXT_ASSEMBLY_USAGE_OCCURRENCE('NAUO14','Part 1','Part 1',#1442,#1445,
'');
#42=NEXT_ASSEMBLY_USAGE_OCCURRENCE('NAUO15','Part 1','Part 1',#1442,#1445,
'');
#43=NEXT_ASSEMBLY_USAGE_OCCURRENCE('NAUO16','Part 1','Part 1',#1442,#1443,
'');
#44=(
REPRESENTATION_RELATIONSHIP(' ',' ',#851,#850)
REPRESENTATION_RELATIONSHIP_WITH_TRANSFORMATION(#60)
SHAPE_REPRESENTATION_RELATIONSHIP()
);
#45=(
REPRESENTATION_RELATIONSHIP(' ',' ',#851,#850)
REPRESENTATION_RELATIONSHIP_WITH_TRANSFORMATION(#61)
SHAPE_REPRESENTATION_RELATIONSHIP()
);
#46=(
REPRESENTATION_RELATIONSHIP(' ',' ',#852,#850)
REPRESENTATION_RELATIONSHIP_WITH_TRANSFORMATION(#62)
SHAPE_REPRESENTATION_RELATIONSHIP()
);
#47=(
REPRESENTATION_RELATIONSHIP(' ',' ',#853,#850)
REPRESENTATION_RELATIONSHIP_WITH_TRANSFORMATION(#63)
SHAPE_REPRESENTATION_RELATIONSHIP()
);
#48=(
REPRESENTATION_RELATIONSHIP(' ',' ',#853,#850)
REPRESENTATION_RELATIONSHIP_WITH_TRANSFORMATION(#64)
SHAPE_REPRESENTATION_RELATIONSHIP()
);
#49=(
REPRESENTATION_RELATIONSHIP(' ',' ',#853,#850)
REPRESENTATION_RELATIONSHIP_WITH_TRANSFORMATION(#65)
SHAPE_REPRESENTATION_RELATIONSHIP()
);
#50=(
REPRESENTATION_RELATIONSHIP(' ',' ',#852,#850)
REPRESENTATION_RELATIONSHIP_WITH_TRANSFORMATION(#66)
SHAPE_REPRESENTATION_RELATIONSHIP()
);
#51=(
REPRESENTATION_RELATIONSHIP(' ',' ',#853,#850)
REPRESENTATION_RELATIONSHIP_WITH_TRANSFORMATION(#67)
SHAPE_REPRESENTATION_RELATIONSHIP()
);
#52=(
REPRESENTATION_RELATIONSHIP(' ',' ',#853,#850)
REPRESENTATION_RELATIONSHIP_WITH_TRANSFORMATION(#68)
SHAPE_REPRESENTATION_RELATIONSHIP()
);
#53=(
REPRESENTATION_RELATIONSHIP(' ',' ',#851,#850)
REPRESENTATION_RELATIONSHIP_WITH_TRANSFORMATION(#69)
SHAPE_REPRESENTATION_RELATIONSHIP()
);
#54=(
REPRESENTATION_RELATIONSHIP(' ',' ',#852,#850)
REPRESENTATION_RELATIONSHIP_WITH_TRANSFORMATION(#70)
SHAPE_REPRESENTATION_RELATIONSHIP()
);
#55=(
REPRESENTATION_RELATIONSHIP(' ',' ',#853,#850)
REPRESENTATION_RELATIONSHIP_WITH_TRANSFORMATION(#71)
SHAPE_REPRESENTATION_RELATIONSHIP()
);
#56=(
REPRESENTATION_RELATIONSHIP(' ',' ',#852,#850)
REPRESENTATION_RELATIONSHIP_WITH_TRANSFORMATION(#72)
SHAPE_REPRESENTATION_RELATIONSHIP()
);
#57=(
REPRESENTATION_RELATIONSHIP(' ',' ',#853,#850)
REPRESENTATION_RELATIONSHIP_WITH_TRANSFORMATION(#73)
SHAPE_REPRESENTATION_RELATIONSHIP()
);
#58=(
REPRESENTATION_RELATIONSHIP(' ',' ',#853,#850)
REPRESENTATION_RELATIONSHIP_WITH_TRANSFORMATION(#74)
SHAPE_REPRESENTATION_RELATIONSHIP()
);
#59=(
REPRESENTATION_RELATIONSHIP(' ',' ',#851,#850)
REPRESENTATION_RELATIONSHIP_WITH_TRANSFORMATION(#75)
SHAPE_REPRESENTATION_RELATIONSHIP()
);
#60=ITEM_DEFINED_TRANSFORMATION(' ',' ',#854,#872);
#61=ITEM_DEFINED_TRANSFORMATION(' ',' ',#854,#873);
#62=ITEM_DEFINED_TRANSFORMATION(' ',' ',#854,#894);
#63=ITEM_DEFINED_TRANSFORMATION(' ',' ',#854,#937);
#64=ITEM_DEFINED_TRANSFORMATION(' ',' ',#854,#938);
#65=ITEM_DEFINED_TRANSFORMATION(' ',' ',#854,#939);
#66=ITEM_DEFINED_TRANSFORMATION(' ',' ',#854,#940);
#67=ITEM_DEFINED_TRANSFORMATION(' ',' ',#854,#941);
#68=ITEM_DEFINED_TRANSFORMATION(' ',' ',#854,#942);
#69=ITEM_DEFINED_TRANSFORMATION(' ',' ',#854,#943);
#70=ITEM_DEFINED_TRANSFORMATION(' ',' ',#854,#944);
#71=ITEM_DEFINED_TRANSFORMATION(' ',' ',#854,#945);
#72=ITEM_DEFINED_TRANSFORMATION(' ',' ',#854,#946);
#73=ITEM_DEFINED_TRANSFORMATION(' ',' ',#854,#947);
#74=ITEM_DEFINED_TRANSFORMATION(' ',' ',#854,#948);
#75=ITEM_DEFINED_TRANSFORMATION(' ',' ',#854,#949);
#76=SHAPE_REPRESENTATION_RELATIONSHIP('','',#851,#79);
#77=SHAPE_REPRESENTATION_RELATIONSHIP('','',#852,#80);
#78=SHAPE_REPRESENTATION_RELATIONSHIP('','',#853,#81);
#79=ADVANCED_BREP_SHAPE_REPRESENTATION('',(#843),#1412);
#80=ADVANCED_BREP_SHAPE_REPRESENTATION('',(#844),#1413);
#81=ADVANCED_BREP_SHAPE_REPRESENTATION('',(#845),#1414);
#82=PLANE('',#858);
#83=PLANE('',#862);
#84=PLANE('',#863);
#85=PLANE('',#865);
#86=PLANE('',#869);
#87=PLANE('',#877);
#88=PLANE('',#881);
#89=PLANE('',#882);
#90=PLANE('',#885);
#91=PLANE('',#891);
#92=PLANE('',#895);
#93=PLANE('',#898);
#94=PLANE('',#901);
#95=PLANE('',#904);
#96=PLANE('',#907);
#97=PLANE('',#908);
#98=PLANE('',#909);
#99=PLANE('',#915);
#100=PLANE('',#920);
#101=PLANE('',#921);
#102=PLANE('',#922);
#103=PLANE('',#923);
#104=PLANE('',#926);
#105=PLANE('',#931);
#106=PLANE('',#932);
#107=LINE('',#1199,#159);
#108=LINE('',#1203,#160);
#109=LINE('',#1205,#161);
#110=LINE('',#1207,#162);
#111=LINE('',#1209,#163);
#112=LINE('',#1213,#164);
#113=LINE('',#1217,#165);
#114=LINE('',#1218,#166);
#115=LINE('',#1238,#167);
#116=LINE('',#1242,#168);
#117=LINE('',#1244,#169);
#118=LINE('',#1246,#170);
#119=LINE('',#1248,#171);
#120=LINE('',#1252,#172);
#121=LINE('',#1256,#173);
#122=LINE('',#1257,#174);
#123=LINE('',#1280,#175);
#124=LINE('',#1283,#176);
#125=LINE('',#1285,#177);
#126=LINE('',#1287,#178);
#127=LINE('',#1291,#179);
#128=LINE('',#1294,#180);
#129=LINE('',#1296,#181);
#130=LINE('',#1298,#182);
#131=LINE('',#1306,#183);
#132=LINE('',#1309,#184);
#133=LINE('',#1311,#185);
#134=LINE('',#1313,#186);
#135=LINE('',#1317,#187);
#136=LINE('',#1320,#188);
#137=LINE('',#1322,#189);
#138=LINE('',#1324,#190);
#139=LINE('',#1330,#191);
#140=LINE('',#1332,#192);
#141=LINE('',#1334,#193);
#142=LINE('',#1336,#194);
#143=LINE('',#1338,#195);
#144=LINE('',#1340,#196);
#145=LINE('',#1348,#197);
#146=LINE('',#1350,#198);
#147=LINE('',#1352,#199);
#148=LINE('',#1364,#200);
#149=LINE('',#1366,#201);
#150=LINE('',#1368,#202);
#151=LINE('',#1372,#203);
#152=LINE('',#1373,#204);
#153=LINE('',#1374,#205);
#154=LINE('',#1375,#206);
#155=LINE('',#1377,#207);
#156=LINE('',#1379,#208);
#157=LINE('',#1380,#209);
#158=LINE('',#1381,#210);
#159=VECTOR('',#956,1.);
#160=VECTOR('',#959,1.);
#161=VECTOR('',#962,1.);
#162=VECTOR('',#963,1.);
#163=VECTOR('',#964,1.);
#164=VECTOR('',#969,1.);
#165=VECTOR('',#974,1.);
#166=VECTOR('',#975,1.);
#167=VECTOR('',#1002,1.);
#168=VECTOR('',#1005,1.);
#169=VECTOR('',#1008,1.);
#170=VECTOR('',#1009,1.);
#171=VECTOR('',#1010,1.);
#172=VECTOR('',#1015,1.);
#173=VECTOR('',#1020,1.);
#174=VECTOR('',#1021,1.);
#175=VECTOR('',#1052,1.);
#176=VECTOR('',#1053,1.);
#177=VECTOR('',#1054,1.);
#178=VECTOR('',#1055,1.);
#179=VECTOR('',#1060,1.);
#180=VECTOR('',#1061,1.);
#181=VECTOR('',#1062,1.);
#182=VECTOR('',#1063,1.);
#183=VECTOR('',#1072,1.);
#184=VECTOR('',#1073,1.);
#185=VECTOR('',#1074,1.);
#186=VECTOR('',#1075,1.);
#187=VECTOR('',#1080,1.);
#188=VECTOR('',#1081,1.);
#189=VECTOR('',#1082,1.);
#190=VECTOR('',#1083,1.);
#191=VECTOR('',#1090,1.);
#192=VECTOR('',#1091,1.);
#193=VECTOR('',#1092,1.);
#194=VECTOR('',#1095,1.);
#195=VECTOR('',#1096,1.);
#196=VECTOR('',#1097,1.);
#197=VECTOR('',#1106,1.);
#198=VECTOR('',#1107,1.);
#199=VECTOR('',#1108,1.);
#200=VECTOR('',#1121,1.);
#201=VECTOR('',#1122,1.);
#202=VECTOR('',#1123,1.);
#203=VECTOR('',#1128,1.);
#204=VECTOR('',#1129,1.);
#205=VECTOR('',#1130,1.);
#206=VECTOR('',#1131,1.);
#207=VECTOR('',#1134,1.);
#208=VECTOR('',#1137,1.);
#209=VECTOR('',#1138,1.);
#210=VECTOR('',#1139,1.);
#211=ORIENTED_EDGE('',*,*,#387,.T.);
#212=ORIENTED_EDGE('',*,*,#388,.F.);
#213=ORIENTED_EDGE('',*,*,#389,.F.);
#214=ORIENTED_EDGE('',*,*,#390,.T.);
#215=ORIENTED_EDGE('',*,*,#391,.T.);
#216=ORIENTED_EDGE('',*,*,#392,.F.);
#217=ORIENTED_EDGE('',*,*,#393,.F.);
#218=ORIENTED_EDGE('',*,*,#388,.T.);
#219=ORIENTED_EDGE('',*,*,#394,.T.);
#220=ORIENTED_EDGE('',*,*,#395,.F.);
#221=ORIENTED_EDGE('',*,*,#396,.F.);
#222=ORIENTED_EDGE('',*,*,#392,.T.);
#223=ORIENTED_EDGE('',*,*,#397,.F.);
#224=ORIENTED_EDGE('',*,*,#390,.F.);
#225=ORIENTED_EDGE('',*,*,#398,.T.);
#226=ORIENTED_EDGE('',*,*,#395,.T.);
#227=ORIENTED_EDGE('',*,*,#399,.F.);
#228=ORIENTED_EDGE('',*,*,#389,.T.);
#229=ORIENTED_EDGE('',*,*,#393,.T.);
#230=ORIENTED_EDGE('',*,*,#396,.T.);
#231=ORIENTED_EDGE('',*,*,#398,.F.);
#232=ORIENTED_EDGE('',*,*,#400,.T.);
#233=ORIENTED_EDGE('',*,*,#387,.F.);
#234=ORIENTED_EDGE('',*,*,#397,.T.);
#235=ORIENTED_EDGE('',*,*,#394,.F.);
#236=ORIENTED_EDGE('',*,*,#391,.F.);
#237=ORIENTED_EDGE('',*,*,#401,.F.);
#238=ORIENTED_EDGE('',*,*,#399,.T.);
#239=ORIENTED_EDGE('',*,*,#402,.F.);
#240=ORIENTED_EDGE('',*,*,#401,.T.);
#241=ORIENTED_EDGE('',*,*,#402,.T.);
#242=ORIENTED_EDGE('',*,*,#400,.F.);
#243=ORIENTED_EDGE('',*,*,#403,.T.);
#244=ORIENTED_EDGE('',*,*,#404,.F.);
#245=ORIENTED_EDGE('',*,*,#405,.F.);
#246=ORIENTED_EDGE('',*,*,#406,.T.);
#247=ORIENTED_EDGE('',*,*,#407,.T.);
#248=ORIENTED_EDGE('',*,*,#408,.F.);
#249=ORIENTED_EDGE('',*,*,#409,.F.);
#250=ORIENTED_EDGE('',*,*,#404,.T.);
#251=ORIENTED_EDGE('',*,*,#410,.T.);
#252=ORIENTED_EDGE('',*,*,#411,.F.);
#253=ORIENTED_EDGE('',*,*,#412,.F.);
#254=ORIENTED_EDGE('',*,*,#408,.T.);
#255=ORIENTED_EDGE('',*,*,#413,.F.);
#256=ORIENTED_EDGE('',*,*,#406,.F.);
#257=ORIENTED_EDGE('',*,*,#414,.T.);
#258=ORIENTED_EDGE('',*,*,#411,.T.);
#259=ORIENTED_EDGE('',*,*,#415,.F.);
#260=ORIENTED_EDGE('',*,*,#416,.F.);
#261=ORIENTED_EDGE('',*,*,#405,.T.);
#262=ORIENTED_EDGE('',*,*,#409,.T.);
#263=ORIENTED_EDGE('',*,*,#412,.T.);
#264=ORIENTED_EDGE('',*,*,#414,.F.);
#265=ORIENTED_EDGE('',*,*,#417,.T.);
#266=ORIENTED_EDGE('',*,*,#418,.T.);
#267=ORIENTED_EDGE('',*,*,#403,.F.);
#268=ORIENTED_EDGE('',*,*,#413,.T.);
#269=ORIENTED_EDGE('',*,*,#410,.F.);
#270=ORIENTED_EDGE('',*,*,#407,.F.);
#271=ORIENTED_EDGE('',*,*,#416,.T.);
#272=ORIENTED_EDGE('',*,*,#418,.F.);
#273=ORIENTED_EDGE('',*,*,#419,.F.);
#274=ORIENTED_EDGE('',*,*,#415,.T.);
#275=ORIENTED_EDGE('',*,*,#420,.F.);
#276=ORIENTED_EDGE('',*,*,#419,.T.);
#277=ORIENTED_EDGE('',*,*,#420,.T.);
#278=ORIENTED_EDGE('',*,*,#417,.F.);
#279=ORIENTED_EDGE('',*,*,#421,.T.);
#280=ORIENTED_EDGE('',*,*,#422,.F.);
#281=ORIENTED_EDGE('',*,*,#423,.F.);
#282=ORIENTED_EDGE('',*,*,#424,.T.);
#283=ORIENTED_EDGE('',*,*,#425,.T.);
#284=ORIENTED_EDGE('',*,*,#426,.F.);
#285=ORIENTED_EDGE('',*,*,#427,.T.);
#286=ORIENTED_EDGE('',*,*,#428,.F.);
#287=ORIENTED_EDGE('',*,*,#429,.F.);
#288=ORIENTED_EDGE('',*,*,#430,.T.);
#289=ORIENTED_EDGE('',*,*,#431,.F.);
#290=ORIENTED_EDGE('',*,*,#432,.T.);
#291=ORIENTED_EDGE('',*,*,#433,.T.);
#292=ORIENTED_EDGE('',*,*,#434,.F.);
#293=ORIENTED_EDGE('',*,*,#435,.F.);
#294=ORIENTED_EDGE('',*,*,#436,.T.);
#295=ORIENTED_EDGE('',*,*,#437,.T.);
#296=ORIENTED_EDGE('',*,*,#438,.F.);
#297=ORIENTED_EDGE('',*,*,#439,.T.);
#298=ORIENTED_EDGE('',*,*,#440,.F.);
#299=ORIENTED_EDGE('',*,*,#441,.F.);
#300=ORIENTED_EDGE('',*,*,#442,.T.);
#301=ORIENTED_EDGE('',*,*,#443,.F.);
#302=ORIENTED_EDGE('',*,*,#444,.T.);
#303=ORIENTED_EDGE('',*,*,#445,.F.);
#304=ORIENTED_EDGE('',*,*,#434,.T.);
#305=ORIENTED_EDGE('',*,*,#446,.T.);
#306=ORIENTED_EDGE('',*,*,#447,.F.);
#307=ORIENTED_EDGE('',*,*,#427,.F.);
#308=ORIENTED_EDGE('',*,*,#448,.F.);
#309=ORIENTED_EDGE('',*,*,#449,.F.);
#310=ORIENTED_EDGE('',*,*,#450,.T.);
#311=ORIENTED_EDGE('',*,*,#451,.T.);
#312=ORIENTED_EDGE('',*,*,#452,.T.);
#313=ORIENTED_EDGE('',*,*,#453,.F.);
#314=ORIENTED_EDGE('',*,*,#454,.F.);
#315=ORIENTED_EDGE('',*,*,#449,.T.);
#316=ORIENTED_EDGE('',*,*,#455,.T.);
#317=ORIENTED_EDGE('',*,*,#456,.F.);
#318=ORIENTED_EDGE('',*,*,#457,.F.);
#319=ORIENTED_EDGE('',*,*,#458,.F.);
#320=ORIENTED_EDGE('',*,*,#459,.T.);
#321=ORIENTED_EDGE('',*,*,#460,.F.);
#322=ORIENTED_EDGE('',*,*,#461,.F.);
#323=ORIENTED_EDGE('',*,*,#462,.T.);
#324=ORIENTED_EDGE('',*,*,#447,.T.);
#325=ORIENTED_EDGE('',*,*,#463,.F.);
#326=ORIENTED_EDGE('',*,*,#464,.F.);
#327=ORIENTED_EDGE('',*,*,#465,.T.);
#328=ORIENTED_EDGE('',*,*,#466,.T.);
#329=ORIENTED_EDGE('',*,*,#442,.F.);
#330=ORIENTED_EDGE('',*,*,#467,.T.);
#331=ORIENTED_EDGE('',*,*,#435,.T.);
#332=ORIENTED_EDGE('',*,*,#445,.T.);
#333=ORIENTED_EDGE('',*,*,#462,.F.);
#334=ORIENTED_EDGE('',*,*,#468,.F.);
#335=ORIENTED_EDGE('',*,*,#425,.F.);
#336=ORIENTED_EDGE('',*,*,#469,.F.);
#337=ORIENTED_EDGE('',*,*,#428,.T.);
#338=ORIENTED_EDGE('',*,*,#450,.F.);
#339=ORIENTED_EDGE('',*,*,#454,.T.);
#340=ORIENTED_EDGE('',*,*,#470,.F.);
#341=ORIENTED_EDGE('',*,*,#422,.T.);
#342=ORIENTED_EDGE('',*,*,#468,.T.);
#343=ORIENTED_EDGE('',*,*,#464,.T.);
#344=ORIENTED_EDGE('',*,*,#463,.T.);
#345=ORIENTED_EDGE('',*,*,#446,.F.);
#346=ORIENTED_EDGE('',*,*,#437,.F.);
#347=ORIENTED_EDGE('',*,*,#471,.F.);
#348=ORIENTED_EDGE('',*,*,#440,.T.);
#349=ORIENTED_EDGE('',*,*,#472,.F.);
#350=ORIENTED_EDGE('',*,*,#455,.F.);
#351=ORIENTED_EDGE('',*,*,#448,.T.);
#352=ORIENTED_EDGE('',*,*,#430,.F.);
#353=ORIENTED_EDGE('',*,*,#473,.T.);
#354=ORIENTED_EDGE('',*,*,#423,.T.);
#355=ORIENTED_EDGE('',*,*,#470,.T.);
#356=ORIENTED_EDGE('',*,*,#439,.F.);
#357=ORIENTED_EDGE('',*,*,#466,.F.);
#358=ORIENTED_EDGE('',*,*,#456,.T.);
#359=ORIENTED_EDGE('',*,*,#472,.T.);
#360=ORIENTED_EDGE('',*,*,#474,.F.);
#361=ORIENTED_EDGE('',*,*,#453,.T.);
#362=ORIENTED_EDGE('',*,*,#474,.T.);
#363=ORIENTED_EDGE('',*,*,#452,.F.);
#364=ORIENTED_EDGE('',*,*,#461,.T.);
#365=ORIENTED_EDGE('',*,*,#451,.F.);
#366=ORIENTED_EDGE('',*,*,#460,.T.);
#367=ORIENTED_EDGE('',*,*,#457,.T.);
#368=ORIENTED_EDGE('',*,*,#459,.F.);
#369=ORIENTED_EDGE('',*,*,#458,.T.);
#370=ORIENTED_EDGE('',*,*,#465,.F.);
#371=ORIENTED_EDGE('',*,*,#424,.F.);
#372=ORIENTED_EDGE('',*,*,#473,.F.);
#373=ORIENTED_EDGE('',*,*,#429,.T.);
#374=ORIENTED_EDGE('',*,*,#469,.T.);
#375=ORIENTED_EDGE('',*,*,#436,.F.);
#376=ORIENTED_EDGE('',*,*,#467,.F.);
#377=ORIENTED_EDGE('',*,*,#441,.T.);
#378=ORIENTED_EDGE('',*,*,#471,.T.);
#379=ORIENTED_EDGE('',*,*,#433,.F.);
#380=ORIENTED_EDGE('',*,*,#443,.T.);
#381=ORIENTED_EDGE('',*,*,#438,.T.);
#382=ORIENTED_EDGE('',*,*,#444,.F.);
#383=ORIENTED_EDGE('',*,*,#421,.F.);
#384=ORIENTED_EDGE('',*,*,#431,.T.);
#385=ORIENTED_EDGE('',*,*,#426,.T.);
#386=ORIENTED_EDGE('',*,*,#432,.F.);
#387=EDGE_CURVE('',#475,#476,#543,.T.);
#388=EDGE_CURVE('',#477,#476,#107,.T.);
#389=EDGE_CURVE('',#478,#477,#544,.T.);
#390=EDGE_CURVE('',#478,#475,#108,.T.);
#391=EDGE_CURVE('',#476,#479,#109,.T.);
#392=EDGE_CURVE('',#480,#479,#110,.T.);
#393=EDGE_CURVE('',#477,#480,#111,.T.);
#394=EDGE_CURVE('',#479,#481,#545,.T.);
#395=EDGE_CURVE('',#482,#481,#112,.T.);
#396=EDGE_CURVE('',#480,#482,#546,.T.);
#397=EDGE_CURVE('',#475,#481,#113,.T.);
#398=EDGE_CURVE('',#478,#482,#114,.T.);
#399=EDGE_CURVE('',#483,#483,#547,.T.);
#400=EDGE_CURVE('',#484,#484,#548,.T.);
#401=EDGE_CURVE('',#485,#485,#549,.T.);
#402=EDGE_CURVE('',#486,#486,#550,.T.);
#403=EDGE_CURVE('',#487,#488,#551,.T.);
#404=EDGE_CURVE('',#489,#488,#115,.T.);
#405=EDGE_CURVE('',#490,#489,#552,.T.);
#406=EDGE_CURVE('',#490,#487,#116,.T.);
#407=EDGE_CURVE('',#488,#491,#117,.T.);
#408=EDGE_CURVE('',#492,#491,#118,.T.);
#409=EDGE_CURVE('',#489,#492,#119,.T.);
#410=EDGE_CURVE('',#491,#493,#553,.T.);
#411=EDGE_CURVE('',#494,#493,#120,.T.);
#412=EDGE_CURVE('',#492,#494,#554,.T.);
#413=EDGE_CURVE('',#487,#493,#121,.T.);
#414=EDGE_CURVE('',#490,#494,#122,.T.);
#415=EDGE_CURVE('',#495,#495,#555,.T.);
#416=EDGE_CURVE('',#496,#496,#556,.T.);
#417=EDGE_CURVE('',#497,#497,#557,.T.);
#418=EDGE_CURVE('',#498,#498,#558,.T.);
#419=EDGE_CURVE('',#499,#499,#559,.T.);
#420=EDGE_CURVE('',#500,#500,#560,.T.);
#421=EDGE_CURVE('',#501,#501,#561,.F.);
#422=EDGE_CURVE('',#502,#503,#123,.T.);
#423=EDGE_CURVE('',#504,#502,#124,.T.);
#424=EDGE_CURVE('',#504,#505,#125,.T.);
#425=EDGE_CURVE('',#505,#503,#126,.T.);
#426=EDGE_CURVE('',#506,#506,#562,.T.);
#427=EDGE_CURVE('',#507,#508,#127,.T.);
#428=EDGE_CURVE('',#509,#508,#128,.T.);
#429=EDGE_CURVE('',#510,#509,#129,.T.);
#430=EDGE_CURVE('',#510,#507,#130,.T.);
#431=EDGE_CURVE('',#511,#511,#563,.F.);
#432=EDGE_CURVE('',#512,#512,#564,.T.);
#433=EDGE_CURVE('',#513,#513,#565,.F.);
#434=EDGE_CURVE('',#514,#515,#131,.T.);
#435=EDGE_CURVE('',#516,#514,#132,.T.);
#436=EDGE_CURVE('',#516,#517,#133,.T.);
#437=EDGE_CURVE('',#517,#515,#134,.T.);
#438=EDGE_CURVE('',#518,#518,#566,.T.);
#439=EDGE_CURVE('',#519,#520,#135,.T.);
#440=EDGE_CURVE('',#521,#520,#136,.T.);
#441=EDGE_CURVE('',#522,#521,#137,.T.);
#442=EDGE_CURVE('',#522,#519,#138,.T.);
#443=EDGE_CURVE('',#523,#523,#567,.F.);
#444=EDGE_CURVE('',#524,#524,#568,.T.);
#445=EDGE_CURVE('',#514,#525,#139,.T.);
#446=EDGE_CURVE('',#515,#526,#140,.T.);
#447=EDGE_CURVE('',#525,#526,#141,.T.);
#448=EDGE_CURVE('',#527,#507,#142,.T.);
#449=EDGE_CURVE('',#528,#527,#143,.T.);
#450=EDGE_CURVE('',#528,#508,#144,.T.);
#451=EDGE_CURVE('',#529,#529,#569,.T.);
#452=EDGE_CURVE('',#530,#530,#570,.T.);
#453=EDGE_CURVE('',#531,#531,#571,.T.);
#454=EDGE_CURVE('',#528,#532,#145,.T.);
#455=EDGE_CURVE('',#527,#533,#146,.T.);
#456=EDGE_CURVE('',#532,#533,#147,.T.);
#457=EDGE_CURVE('',#534,#534,#572,.T.);
#458=EDGE_CURVE('',#535,#535,#573,.T.);
#459=EDGE_CURVE('',#536,#536,#574,.T.);
#460=EDGE_CURVE('',#537,#537,#575,.F.);
#461=EDGE_CURVE('',#538,#538,#576,.F.);
#462=EDGE_CURVE('',#539,#525,#148,.T.);
#463=EDGE_CURVE('',#540,#526,#149,.T.);
#464=EDGE_CURVE('',#539,#540,#150,.T.);
#465=EDGE_CURVE('',#541,#541,#577,.T.);
#466=EDGE_CURVE('',#532,#519,#151,.T.);
#467=EDGE_CURVE('',#522,#516,#152,.T.);
#468=EDGE_CURVE('',#503,#539,#153,.T.);
#469=EDGE_CURVE('',#509,#505,#154,.T.);
#470=EDGE_CURVE('',#502,#540,#155,.T.);
#471=EDGE_CURVE('',#521,#517,#156,.T.);
#472=EDGE_CURVE('',#533,#520,#157,.T.);
#473=EDGE_CURVE('',#510,#504,#158,.T.);
#474=EDGE_CURVE('',#542,#542,#578,.T.);
#475=VERTEX_POINT('',#1197);
#476=VERTEX_POINT('',#1198);
#477=VERTEX_POINT('',#1200);
#478=VERTEX_POINT('',#1202);
#479=VERTEX_POINT('',#1206);
#480=VERTEX_POINT('',#1208);
#481=VERTEX_POINT('',#1212);
#482=VERTEX_POINT('',#1214);
#483=VERTEX_POINT('',#1221);
#484=VERTEX_POINT('',#1224);
#485=VERTEX_POINT('',#1227);
#486=VERTEX_POINT('',#1230);
#487=VERTEX_POINT('',#1236);
#488=VERTEX_POINT('',#1237);
#489=VERTEX_POINT('',#1239);
#490=VERTEX_POINT('',#1241);
#491=VERTEX_POINT('',#1245);
#492=VERTEX_POINT('',#1247);
#493=VERTEX_POINT('',#1251);
#494=VERTEX_POINT('',#1253);
#495=VERTEX_POINT('',#1260);
#496=VERTEX_POINT('',#1262);
#497=VERTEX_POINT('',#1265);
#498=VERTEX_POINT('',#1267);
#499=VERTEX_POINT('',#1271);
#500=VERTEX_POINT('',#1274);
#501=VERTEX_POINT('',#1279);
#502=VERTEX_POINT('',#1281);
#503=VERTEX_POINT('',#1282);
#504=VERTEX_POINT('',#1284);
#505=VERTEX_POINT('',#1286);
#506=VERTEX_POINT('',#1289);
#507=VERTEX_POINT('',#1292);
#508=VERTEX_POINT('',#1293);
#509=VERTEX_POINT('',#1295);
#510=VERTEX_POINT('',#1297);
#511=VERTEX_POINT('',#1300);
#512=VERTEX_POINT('',#1302);
#513=VERTEX_POINT('',#1305);
#514=VERTEX_POINT('',#1307);
#515=VERTEX_POINT('',#1308);
#516=VERTEX_POINT('',#1310);
#517=VERTEX_POINT('',#1312);
#518=VERTEX_POINT('',#1315);
#519=VERTEX_POINT('',#1318);
#520=VERTEX_POINT('',#1319);
#521=VERTEX_POINT('',#1321);
#522=VERTEX_POINT('',#1323);
#523=VERTEX_POINT('',#1326);
#524=VERTEX_POINT('',#1328);
#525=VERTEX_POINT('',#1331);
#526=VERTEX_POINT('',#1333);
#527=VERTEX_POINT('',#1337);
#528=VERTEX_POINT('',#1339);
#529=VERTEX_POINT('',#1343);
#530=VERTEX_POINT('',#1345);
#531=VERTEX_POINT('',#1347);
#532=VERTEX_POINT('',#1349);
#533=VERTEX_POINT('',#1351);
#534=VERTEX_POINT('',#1354);
#535=VERTEX_POINT('',#1356);
#536=VERTEX_POINT('',#1359);
#537=VERTEX_POINT('',#1361);
#538=VERTEX_POINT('',#1363);
#539=VERTEX_POINT('',#1365);
#540=VERTEX_POINT('',#1367);
#541=VERTEX_POINT('',#1370);
#542=VERTEX_POINT('',#1385);
#543=CIRCLE('',#856,0.01016);
#544=CIRCLE('',#857,0.01016);
#545=CIRCLE('',#860,0.01016);
#546=CIRCLE('',#861,0.01016);
#547=CIRCLE('',#864,0.010033);
#548=CIRCLE('',#866,0.002286);
#549=CIRCLE('',#868,0.010033);
#550=CIRCLE('',#870,0.002286);
#551=CIRCLE('',#875,0.01016);
#552=CIRCLE('',#876,0.01016);
#553=CIRCLE('',#879,0.01016);
#554=CIRCLE('',#880,0.01016);
#555=CIRCLE('',#883,0.010033);
#556=CIRCLE('',#884,0.004445);
#557=CIRCLE('',#886,0.002286);
#558=CIRCLE('',#887,0.004445);
#559=CIRCLE('',#890,0.010033);
#560=CIRCLE('',#892,0.002286);
#561=CIRCLE('',#896,0.003);
#562=CIRCLE('',#897,0.003);
#563=CIRCLE('',#899,0.003);
#564=CIRCLE('',#900,0.003);
#565=CIRCLE('',#902,0.003);
#566=CIRCLE('',#903,0.003);
#567=CIRCLE('',#905,0.003);
#568=CIRCLE('',#906,0.003);
#569=CIRCLE('',#910,0.002159);
#570=CIRCLE('',#911,0.002159);
#571=CIRCLE('',#912,0.002921);
#572=CIRCLE('',#913,0.002159);
#573=CIRCLE('',#914,0.002159);
#574=CIRCLE('',#916,0.002159);
#575=CIRCLE('',#917,0.002159);
#576=CIRCLE('',#918,0.002159);
#577=CIRCLE('',#919,0.002159);
#578=CIRCLE('',#925,0.002921);
#579=EDGE_LOOP('',(#211,#212,#213,#214));
#580=EDGE_LOOP('',(#215,#216,#217,#218));
#581=EDGE_LOOP('',(#219,#220,#221,#222));
#582=EDGE_LOOP('',(#223,#224,#225,#226));
#583=EDGE_LOOP('',(#227));
#584=EDGE_LOOP('',(#228,#229,#230,#231));
#585=EDGE_LOOP('',(#232));
#586=EDGE_LOOP('',(#233,#234,#235,#236));
#587=EDGE_LOOP('',(#237));
#588=EDGE_LOOP('',(#238));
#589=EDGE_LOOP('',(#239));
#590=EDGE_LOOP('',(#240));
#591=EDGE_LOOP('',(#241));
#592=EDGE_LOOP('',(#242));
#593=EDGE_LOOP('',(#243,#244,#245,#246));
#594=EDGE_LOOP('',(#247,#248,#249,#250));
#595=EDGE_LOOP('',(#251,#252,#253,#254));
#596=EDGE_LOOP('',(#255,#256,#257,#258));
#597=EDGE_LOOP('',(#259));
#598=EDGE_LOOP('',(#260));
#599=EDGE_LOOP('',(#261,#262,#263,#264));
#600=EDGE_LOOP('',(#265));
#601=EDGE_LOOP('',(#266));
#602=EDGE_LOOP('',(#267,#268,#269,#270));
#603=EDGE_LOOP('',(#271));
#604=EDGE_LOOP('',(#272));
#605=EDGE_LOOP('',(#273));
#606=EDGE_LOOP('',(#274));
#607=EDGE_LOOP('',(#275));
#608=EDGE_LOOP('',(#276));
#609=EDGE_LOOP('',(#277));
#610=EDGE_LOOP('',(#278));
#611=EDGE_LOOP('',(#279));
#612=EDGE_LOOP('',(#280,#281,#282,#283));
#613=EDGE_LOOP('',(#284));
#614=EDGE_LOOP('',(#285,#286,#287,#288));
#615=EDGE_LOOP('',(#289));
#616=EDGE_LOOP('',(#290));
#617=EDGE_LOOP('',(#291));
#618=EDGE_LOOP('',(#292,#293,#294,#295));
#619=EDGE_LOOP('',(#296));
#620=EDGE_LOOP('',(#297,#298,#299,#300));
#621=EDGE_LOOP('',(#301));
#622=EDGE_LOOP('',(#302));
#623=EDGE_LOOP('',(#303,#304,#305,#306));
#624=EDGE_LOOP('',(#307,#308,#309,#310));
#625=EDGE_LOOP('',(#311));
#626=EDGE_LOOP('',(#312));
#627=EDGE_LOOP('',(#313));
#628=EDGE_LOOP('',(#314,#315,#316,#317));
#629=EDGE_LOOP('',(#318));
#630=EDGE_LOOP('',(#319));
#631=EDGE_LOOP('',(#320));
#632=EDGE_LOOP('',(#321));
#633=EDGE_LOOP('',(#322));
#634=EDGE_LOOP('',(#323,#324,#325,#326));
#635=EDGE_LOOP('',(#327));
#636=EDGE_LOOP('',(#328,#329,#330,#331,#332,#333,#334,#335,#336,#337,#338,
#339));
#637=EDGE_LOOP('',(#340,#341,#342,#343));
#638=EDGE_LOOP('',(#344,#345,#346,#347,#348,#349,#350,#351,#352,#353,#354,
#355));
#639=EDGE_LOOP('',(#356,#357,#358,#359));
#640=EDGE_LOOP('',(#360));
#641=EDGE_LOOP('',(#361));
#642=EDGE_LOOP('',(#362));
#643=EDGE_LOOP('',(#363));
#644=EDGE_LOOP('',(#364));
#645=EDGE_LOOP('',(#365));
#646=EDGE_LOOP('',(#366));
#647=EDGE_LOOP('',(#367));
#648=EDGE_LOOP('',(#368));
#649=EDGE_LOOP('',(#369));
#650=EDGE_LOOP('',(#370));
#651=EDGE_LOOP('',(#371,#372,#373,#374));
#652=EDGE_LOOP('',(#375,#376,#377,#378));
#653=EDGE_LOOP('',(#379));
#654=EDGE_LOOP('',(#380));
#655=EDGE_LOOP('',(#381));
#656=EDGE_LOOP('',(#382));
#657=EDGE_LOOP('',(#383));
#658=EDGE_LOOP('',(#384));
#659=EDGE_LOOP('',(#385));
#660=EDGE_LOOP('',(#386));
#661=FACE_BOUND('',#579,.T.);
#662=FACE_BOUND('',#580,.T.);
#663=FACE_BOUND('',#581,.T.);
#664=FACE_BOUND('',#582,.T.);
#665=FACE_BOUND('',#583,.T.);
#666=FACE_BOUND('',#584,.T.);
#667=FACE_BOUND('',#585,.T.);
#668=FACE_BOUND('',#586,.T.);
#669=FACE_BOUND('',#587,.T.);
#670=FACE_BOUND('',#588,.T.);
#671=FACE_BOUND('',#589,.T.);
#672=FACE_BOUND('',#590,.T.);
#673=FACE_BOUND('',#591,.T.);
#674=FACE_BOUND('',#592,.T.);
#675=FACE_BOUND('',#593,.T.);
#676=FACE_BOUND('',#594,.T.);
#677=FACE_BOUND('',#595,.T.);
#678=FACE_BOUND('',#596,.T.);
#679=FACE_BOUND('',#597,.T.);
#680=FACE_BOUND('',#598,.T.);
#681=FACE_BOUND('',#599,.T.);
#682=FACE_BOUND('',#600,.T.);
#683=FACE_BOUND('',#601,.T.);
#684=FACE_BOUND('',#602,.T.);
#685=FACE_BOUND('',#603,.T.);
#686=FACE_BOUND('',#604,.T.);
#687=FACE_BOUND('',#605,.T.);
#688=FACE_BOUND('',#606,.T.);
#689=FACE_BOUND('',#607,.T.);
#690=FACE_BOUND('',#608,.T.);
#691=FACE_BOUND('',#609,.T.);
#692=FACE_BOUND('',#610,.T.);
#693=FACE_BOUND('',#611,.T.);
#694=FACE_BOUND('',#612,.T.);
#695=FACE_BOUND('',#613,.T.);
#696=FACE_BOUND('',#614,.T.);
#697=FACE_BOUND('',#615,.T.);
#698=FACE_BOUND('',#616,.T.);
#699=FACE_BOUND('',#617,.T.);
#700=FACE_BOUND('',#618,.T.);
#701=FACE_BOUND('',#619,.T.);
#702=FACE_BOUND('',#620,.T.);
#703=FACE_BOUND('',#621,.T.);
#704=FACE_BOUND('',#622,.T.);
#705=FACE_BOUND('',#623,.T.);
#706=FACE_BOUND('',#624,.T.);
#707=FACE_BOUND('',#625,.T.);
#708=FACE_BOUND('',#626,.T.);
#709=FACE_BOUND('',#627,.T.);
#710=FACE_BOUND('',#628,.T.);
#711=FACE_BOUND('',#629,.T.);
#712=FACE_BOUND('',#630,.T.);
#713=FACE_BOUND('',#631,.T.);
#714=FACE_BOUND('',#632,.T.);
#715=FACE_BOUND('',#633,.T.);
#716=FACE_BOUND('',#634,.T.);
#717=FACE_BOUND('',#635,.T.);
#718=FACE_BOUND('',#636,.T.);
#719=FACE_BOUND('',#637,.T.);
#720=FACE_BOUND('',#638,.T.);
#721=FACE_BOUND('',#639,.T.);
#722=FACE_BOUND('',#640,.T.);
#723=FACE_BOUND('',#641,.T.);
#724=FACE_BOUND('',#642,.T.);
#725=FACE_BOUND('',#643,.T.);
#726=FACE_BOUND('',#644,.T.);
#727=FACE_BOUND('',#645,.T.);
#728=FACE_BOUND('',#646,.T.);
#729=FACE_BOUND('',#647,.T.);
#730=FACE_BOUND('',#648,.T.);
#731=FACE_BOUND('',#649,.T.);
#732=FACE_BOUND('',#650,.T.);
#733=FACE_BOUND('',#651,.T.);
#734=FACE_BOUND('',#652,.T.);
#735=FACE_BOUND('',#653,.T.);
#736=FACE_BOUND('',#654,.T.);
#737=FACE_BOUND('',#655,.T.);
#738=FACE_BOUND('',#656,.T.);
#739=FACE_BOUND('',#657,.T.);
#740=FACE_BOUND('',#658,.T.);
#741=FACE_BOUND('',#659,.T.);
#742=FACE_BOUND('',#660,.T.);
#743=CYLINDRICAL_SURFACE('',#855,0.01016);
#744=CYLINDRICAL_SURFACE('',#859,0.01016);
#745=CYLINDRICAL_SURFACE('',#867,0.010033);
#746=CYLINDRICAL_SURFACE('',#871,0.002286);
#747=CYLINDRICAL_SURFACE('',#874,0.01016);
#748=CYLINDRICAL_SURFACE('',#878,0.01016);
#749=CYLINDRICAL_SURFACE('',#888,0.004445);
#750=CYLINDRICAL_SURFACE('',#889,0.010033);
#751=CYLINDRICAL_SURFACE('',#893,0.002286);
#752=CYLINDRICAL_SURFACE('',#924,0.002921);
#753=CYLINDRICAL_SURFACE('',#927,0.002159);
#754=CYLINDRICAL_SURFACE('',#928,0.002159);
#755=CYLINDRICAL_SURFACE('',#929,0.002159);
#756=CYLINDRICAL_SURFACE('',#930,0.002159);
#757=CYLINDRICAL_SURFACE('',#933,0.003);
#758=CYLINDRICAL_SURFACE('',#934,0.003);
#759=CYLINDRICAL_SURFACE('',#935,0.003);
#760=CYLINDRICAL_SURFACE('',#936,0.003);
#761=ADVANCED_FACE('',(#661),#743,.T.);
#762=ADVANCED_FACE('',(#662),#82,.F.);
#763=ADVANCED_FACE('',(#663),#744,.T.);
#764=ADVANCED_FACE('',(#664),#83,.T.);
#765=ADVANCED_FACE('',(#665,#666),#84,.T.);
#766=ADVANCED_FACE('',(#667,#668),#85,.F.);
#767=ADVANCED_FACE('',(#669,#670),#745,.F.);
#768=ADVANCED_FACE('',(#671,#672),#86,.T.);
#769=ADVANCED_FACE('',(#673,#674),#746,.F.);
#770=ADVANCED_FACE('',(#675),#747,.T.);
#771=ADVANCED_FACE('',(#676),#87,.F.);
#772=ADVANCED_FACE('',(#677),#748,.T.);
#773=ADVANCED_FACE('',(#678),#88,.T.);
#774=ADVANCED_FACE('',(#679,#680,#681),#89,.T.);
#775=ADVANCED_FACE('',(#682,#683,#684),#90,.F.);
#776=ADVANCED_FACE('',(#685,#686),#749,.F.);
#777=ADVANCED_FACE('',(#687,#688),#750,.F.);
#778=ADVANCED_FACE('',(#689,#690),#91,.T.);
#779=ADVANCED_FACE('',(#691,#692),#751,.F.);
#780=ADVANCED_FACE('',(#693,#694,#695),#92,.T.);
#781=ADVANCED_FACE('',(#696,#697,#698),#93,.F.);
#782=ADVANCED_FACE('',(#699,#700,#701),#94,.T.);
#783=ADVANCED_FACE('',(#702,#703,#704),#95,.F.);
#784=ADVANCED_FACE('',(#705),#96,.T.);
#785=ADVANCED_FACE('',(#706),#97,.F.);
#786=ADVANCED_FACE('',(#707,#708,#709,#710,#711,#712),#98,.T.);
#787=ADVANCED_FACE('',(#713,#714,#715,#716,#717),#99,.F.);
#788=ADVANCED_FACE('',(#718),#100,.T.);
#789=ADVANCED_FACE('',(#719),#101,.F.);
#790=ADVANCED_FACE('',(#720),#102,.F.);
#791=ADVANCED_FACE('',(#721),#103,.T.);
#792=ADVANCED_FACE('',(#722,#723),#752,.T.);
#793=ADVANCED_FACE('',(#724),#104,.T.);
#794=ADVANCED_FACE('',(#725,#726),#753,.F.);
#795=ADVANCED_FACE('',(#727,#728),#754,.F.);
#796=ADVANCED_FACE('',(#729,#730),#755,.F.);
#797=ADVANCED_FACE('',(#731,#732),#756,.F.);
#798=ADVANCED_FACE('',(#733),#105,.T.);
#799=ADVANCED_FACE('',(#734),#106,.T.);
#800=ADVANCED_FACE('',(#735,#736),#757,.F.);
#801=ADVANCED_FACE('',(#737,#738),#758,.F.);
#802=ADVANCED_FACE('',(#739,#740),#759,.F.);
#803=ADVANCED_FACE('',(#741,#742),#760,.F.);
#804=CLOSED_SHELL('',(#761,#762,#763,#764,#765,#766,#767,#768,#769));
#805=CLOSED_SHELL('',(#770,#771,#772,#773,#774,#775,#776,#777,#778,#779));
#806=CLOSED_SHELL('',(#780,#781,#782,#783,#784,#785,#786,#787,#788,#789,
#790,#791,#792,#793,#794,#795,#796,#797,#798,#799,#800,#801,#802,#803));
#807=STYLED_ITEM('',(#810),#843);
#808=STYLED_ITEM('',(#811),#844);
#809=STYLED_ITEM('',(#812),#845);
#810=PRESENTATION_STYLE_ASSIGNMENT((#815));
#811=PRESENTATION_STYLE_ASSIGNMENT((#816));
#812=PRESENTATION_STYLE_ASSIGNMENT((#817));
#813=PRESENTATION_STYLE_ASSIGNMENT((#818));
#814=PRESENTATION_STYLE_ASSIGNMENT((#819));
#815=SURFACE_STYLE_USAGE(.BOTH.,#820);
#816=SURFACE_STYLE_USAGE(.BOTH.,#821);
#817=SURFACE_STYLE_USAGE(.BOTH.,#822);
#818=SURFACE_STYLE_USAGE(.BOTH.,#823);
#819=SURFACE_STYLE_USAGE(.BOTH.,#824);
#820=SURFACE_SIDE_STYLE('',(#825));
#821=SURFACE_SIDE_STYLE('',(#826));
#822=SURFACE_SIDE_STYLE('',(#827));
#823=SURFACE_SIDE_STYLE('',(#828));
#824=SURFACE_SIDE_STYLE('',(#829));
#825=SURFACE_STYLE_FILL_AREA(#830);
#826=SURFACE_STYLE_FILL_AREA(#831);
#827=SURFACE_STYLE_FILL_AREA(#832);
#828=SURFACE_STYLE_FILL_AREA(#833);
#829=SURFACE_STYLE_FILL_AREA(#834);
#830=FILL_AREA_STYLE('',(#835));
#831=FILL_AREA_STYLE('',(#836));
#832=FILL_AREA_STYLE('',(#837));
#833=FILL_AREA_STYLE('',(#838));
#834=FILL_AREA_STYLE('',(#839));
#835=FILL_AREA_STYLE_COLOUR('',#840);
#836=FILL_AREA_STYLE_COLOUR('',#840);
#837=FILL_AREA_STYLE_COLOUR('',#841);
#838=FILL_AREA_STYLE_COLOUR('',#842);
#839=FILL_AREA_STYLE_COLOUR('',#842);
#840=COLOUR_RGB('',0.972549019607843,0.529411764705882,0.00392156862745098);
#841=COLOUR_RGB('',0.156862745098039,0.156862745098039,0.168627450980392);
#842=COLOUR_RGB('',0.713725490196078,0.76078431372549,0.8);
#843=MANIFOLD_SOLID_BREP('Part 1',#804);
#844=MANIFOLD_SOLID_BREP('Part 1',#805);
#845=MANIFOLD_SOLID_BREP('Part 1',#806);
#846=SHAPE_DEFINITION_REPRESENTATION(#1422,#850);
#847=SHAPE_DEFINITION_REPRESENTATION(#1423,#851);
#848=SHAPE_DEFINITION_REPRESENTATION(#1426,#852);
#849=SHAPE_DEFINITION_REPRESENTATION(#1428,#853);
#850=SHAPE_REPRESENTATION('Assembly 2',(#854,#872,#873,#894,#937,#938,#939,
#940,#941,#942,#943,#944,#945,#946,#947,#948,#949),#1411);
#851=SHAPE_REPRESENTATION('Part 1',(#854),#1412);
#852=SHAPE_REPRESENTATION('Part 1',(#854),#1413);
#853=SHAPE_REPRESENTATION('Part 1',(#854),#1414);
#854=AXIS2_PLACEMENT_3D('',#1194,#950,#951);
#855=AXIS2_PLACEMENT_3D('',#1195,#952,#953);
#856=AXIS2_PLACEMENT_3D('',#1196,#954,#955);
#857=AXIS2_PLACEMENT_3D('',#1201,#957,#958);
#858=AXIS2_PLACEMENT_3D('',#1204,#960,#961);
#859=AXIS2_PLACEMENT_3D('',#1210,#965,#966);
#860=AXIS2_PLACEMENT_3D('',#1211,#967,#968);
#861=AXIS2_PLACEMENT_3D('',#1215,#970,#971);
#862=AXIS2_PLACEMENT_3D('',#1216,#972,#973);
#863=AXIS2_PLACEMENT_3D('',#1219,#976,#977);
#864=AXIS2_PLACEMENT_3D('',#1220,#978,#979);
#865=AXIS2_PLACEMENT_3D('',#1222,#980,#981);
#866=AXIS2_PLACEMENT_3D('',#1223,#982,#983);
#867=AXIS2_PLACEMENT_3D('',#1225,#984,#985);
#868=AXIS2_PLACEMENT_3D('',#1226,#986,#987);
#869=AXIS2_PLACEMENT_3D('',#1228,#988,#989);
#870=AXIS2_PLACEMENT_3D('',#1229,#990,#991);
#871=AXIS2_PLACEMENT_3D('',#1231,#992,#993);
#872=AXIS2_PLACEMENT_3D('',#1232,#994,#995);
#873=AXIS2_PLACEMENT_3D('',#1233,#996,#997);
#874=AXIS2_PLACEMENT_3D('',#1234,#998,#999);
#875=AXIS2_PLACEMENT_3D('',#1235,#1000,#1001);
#876=AXIS2_PLACEMENT_3D('',#1240,#1003,#1004);
#877=AXIS2_PLACEMENT_3D('',#1243,#1006,#1007);
#878=AXIS2_PLACEMENT_3D('',#1249,#1011,#1012);
#879=AXIS2_PLACEMENT_3D('',#1250,#1013,#1014);
#880=AXIS2_PLACEMENT_3D('',#1254,#1016,#1017);
#881=AXIS2_PLACEMENT_3D('',#1255,#1018,#1019);
#882=AXIS2_PLACEMENT_3D('',#1258,#1022,#1023);
#883=AXIS2_PLACEMENT_3D('',#1259,#1024,#1025);
#884=AXIS2_PLACEMENT_3D('',#1261,#1026,#1027);
#885=AXIS2_PLACEMENT_3D('',#1263,#1028,#1029);
#886=AXIS2_PLACEMENT_3D('',#1264,#1030,#1031);
#887=AXIS2_PLACEMENT_3D('',#1266,#1032,#1033);
#888=AXIS2_PLACEMENT_3D('',#1268,#1034,#1035);
#889=AXIS2_PLACEMENT_3D('',#1269,#1036,#1037);
#890=AXIS2_PLACEMENT_3D('',#1270,#1038,#1039);
#891=AXIS2_PLACEMENT_3D('',#1272,#1040,#1041);
#892=AXIS2_PLACEMENT_3D('',#1273,#1042,#1043);
#893=AXIS2_PLACEMENT_3D('',#1275,#1044,#1045);
#894=AXIS2_PLACEMENT_3D('',#1276,#1046,#1047);
#895=AXIS2_PLACEMENT_3D('',#1277,#1048,#1049);
#896=AXIS2_PLACEMENT_3D('',#1278,#1050,#1051);
#897=AXIS2_PLACEMENT_3D('',#1288,#1056,#1057);
#898=AXIS2_PLACEMENT_3D('',#1290,#1058,#1059);
#899=AXIS2_PLACEMENT_3D('',#1299,#1064,#1065);
#900=AXIS2_PLACEMENT_3D('',#1301,#1066,#1067);
#901=AXIS2_PLACEMENT_3D('',#1303,#1068,#1069);
#902=AXIS2_PLACEMENT_3D('',#1304,#1070,#1071);
#903=AXIS2_PLACEMENT_3D('',#1314,#1076,#1077);
#904=AXIS2_PLACEMENT_3D('',#1316,#1078,#1079);
#905=AXIS2_PLACEMENT_3D('',#1325,#1084,#1085);
#906=AXIS2_PLACEMENT_3D('',#1327,#1086,#1087);
#907=AXIS2_PLACEMENT_3D('',#1329,#1088,#1089);
#908=AXIS2_PLACEMENT_3D('',#1335,#1093,#1094);
#909=AXIS2_PLACEMENT_3D('',#1341,#1098,#1099);
#910=AXIS2_PLACEMENT_3D('',#1342,#1100,#1101);
#911=AXIS2_PLACEMENT_3D('',#1344,#1102,#1103);
#912=AXIS2_PLACEMENT_3D('',#1346,#1104,#1105);
#913=AXIS2_PLACEMENT_3D('',#1353,#1109,#1110);
#914=AXIS2_PLACEMENT_3D('',#1355,#1111,#1112);
#915=AXIS2_PLACEMENT_3D('',#1357,#1113,#1114);
#916=AXIS2_PLACEMENT_3D('',#1358,#1115,#1116);
#917=AXIS2_PLACEMENT_3D('',#1360,#1117,#1118);
#918=AXIS2_PLACEMENT_3D('',#1362,#1119,#1120);
#919=AXIS2_PLACEMENT_3D('',#1369,#1124,#1125);
#920=AXIS2_PLACEMENT_3D('',#1371,#1126,#1127);
#921=AXIS2_PLACEMENT_3D('',#1376,#1132,#1133);
#922=AXIS2_PLACEMENT_3D('',#1378,#1135,#1136);
#923=AXIS2_PLACEMENT_3D('',#1382,#1140,#1141);
#924=AXIS2_PLACEMENT_3D('',#1383,#1142,#1143);
#925=AXIS2_PLACEMENT_3D('',#1384,#1144,#1145);
#926=AXIS2_PLACEMENT_3D('',#1386,#1146,#1147);
#927=AXIS2_PLACEMENT_3D('',#1387,#1148,#1149);
#928=AXIS2_PLACEMENT_3D('',#1388,#1150,#1151);
#929=AXIS2_PLACEMENT_3D('',#1389,#1152,#1153);
#930=AXIS2_PLACEMENT_3D('',#1390,#1154,#1155);
#931=AXIS2_PLACEMENT_3D('',#1391,#1156,#1157);
#932=AXIS2_PLACEMENT_3D('',#1392,#1158,#1159);
#933=AXIS2_PLACEMENT_3D('',#1393,#1160,#1161);
#934=AXIS2_PLACEMENT_3D('',#1394,#1162,#1163);
#935=AXIS2_PLACEMENT_3D('',#1395,#1164,#1165);
#936=AXIS2_PLACEMENT_3D('',#1396,#1166,#1167);
#937=AXIS2_PLACEMENT_3D('',#1397,#1168,#1169);
#938=AXIS2_PLACEMENT_3D('',#1398,#1170,#1171);
#939=AXIS2_PLACEMENT_3D('',#1399,#1172,#1173);
#940=AXIS2_PLACEMENT_3D('',#1400,#1174,#1175);
#941=AXIS2_PLACEMENT_3D('',#1401,#1176,#1177);
#942=AXIS2_PLACEMENT_3D('',#1402,#1178,#1179);
#943=AXIS2_PLACEMENT_3D('',#1403,#1180,#1181);
#944=AXIS2_PLACEMENT_3D('',#1404,#1182,#1183);
#945=AXIS2_PLACEMENT_3D('',#1405,#1184,#1185);
#946=AXIS2_PLACEMENT_3D('',#1406,#1186,#1187);
#947=AXIS2_PLACEMENT_3D('',#1407,#1188,#1189);
#948=AXIS2_PLACEMENT_3D('',#1408,#1190,#1191);
#949=AXIS2_PLACEMENT_3D('',#1409,#1192,#1193);
#950=DIRECTION('',(0.,0.,1.));
#951=DIRECTION('',(1.,0.,0.));
#952=DIRECTION('',(0.,1.,0.));
#953=DIRECTION('',(0.,0.,1.));
#954=DIRECTION('',(0.,-1.,0.));
#955=DIRECTION('',(0.,0.,-1.));
#956=DIRECTION('',(0.,1.,0.));
#957=DIRECTION('',(0.,-1.,0.));
#958=DIRECTION('',(0.,0.,-1.));
#959=DIRECTION('',(0.,1.,0.));
#960=DIRECTION('',(1.,0.,-4.26851249010041E-17));
#961=DIRECTION('',(-4.26851249010041E-17,0.,-1.));
#962=DIRECTION('',(-4.26851249010041E-17,0.,-1.));
#963=DIRECTION('',(0.,1.,0.));
#964=DIRECTION('',(-4.26851249010041E-17,0.,-1.));
#965=DIRECTION('',(0.,1.,0.));
#966=DIRECTION('',(0.,0.,1.));
#967=DIRECTION('',(0.,-1.,0.));
#968=DIRECTION('',(0.,0.,-1.));
#969=DIRECTION('',(0.,1.,0.));
#970=DIRECTION('',(0.,-1.,0.));
#971=DIRECTION('',(0.,0.,-1.));
#972=DIRECTION('',(1.,0.,-4.26851249010041E-17));
#973=DIRECTION('',(-4.26851249010041E-17,0.,-1.));
#974=DIRECTION('',(-4.26851249010041E-17,0.,-1.));
#975=DIRECTION('',(-4.26851249010041E-17,0.,-1.));
#976=DIRECTION('',(0.,-1.,0.));
#977=DIRECTION('',(1.,0.,0.));
#978=DIRECTION('',(0.,-1.,0.));
#979=DIRECTION('',(0.,0.,-1.));
#980=DIRECTION('',(0.,-1.,0.));
#981=DIRECTION('',(1.,0.,0.));
#982=DIRECTION('',(0.,-1.,0.));
#983=DIRECTION('',(0.,0.,-1.));
#984=DIRECTION('',(0.,-1.,0.));
#985=DIRECTION('',(0.,0.,-1.));
#986=DIRECTION('',(0.,-1.,0.));
#987=DIRECTION('',(0.,0.,-1.));
#988=DIRECTION('',(0.,-1.,0.));
#989=DIRECTION('',(1.,0.,0.));
#990=DIRECTION('',(0.,-1.,0.));
#991=DIRECTION('',(0.,0.,-1.));
#992=DIRECTION('',(0.,-1.,0.));
#993=DIRECTION('',(0.,0.,-1.));
#994=DIRECTION('',(-0.348998036238881,0.937123455421646,-3.58489128681209E-17));
#995=DIRECTION('',(0.937123455421646,0.348998036238881,-4.96412620994724E-17));
#996=DIRECTION('',(0.2517040944492,0.967804240968962,-4.26586147479678E-17));
#997=DIRECTION('',(0.967804240968962,-0.2517040944492,4.39276910893245E-17));
#998=DIRECTION('',(0.,1.,0.));
#999=DIRECTION('',(1.22464679914735E-16,0.,-1.));
#1000=DIRECTION('',(0.,-1.,0.));
#1001=DIRECTION('',(-1.22464679914735E-16,0.,1.));
#1002=DIRECTION('',(0.,1.,0.));
#1003=DIRECTION('',(0.,-1.,0.));
#1004=DIRECTION('',(-1.22464679914735E-16,0.,1.));
#1005=DIRECTION('',(0.,1.,0.));
#1006=DIRECTION('',(-1.,0.,-7.97795550137312E-17));
#1007=DIRECTION('',(-7.97795550137312E-17,0.,1.));
#1008=DIRECTION('',(-7.97795550137312E-17,0.,1.));
#1009=DIRECTION('',(0.,1.,0.));
#1010=DIRECTION('',(-7.97795550137312E-17,0.,1.));
#1011=DIRECTION('',(0.,1.,0.));
#1012=DIRECTION('',(1.22464679914735E-16,0.,-1.));
#1013=DIRECTION('',(0.,-1.,0.));
#1014=DIRECTION('',(-1.22464679914735E-16,0.,1.));
#1015=DIRECTION('',(0.,1.,0.));
#1016=DIRECTION('',(0.,-1.,0.));
#1017=DIRECTION('',(-1.22464679914735E-16,0.,1.));
#1018=DIRECTION('',(-1.,0.,-7.97795550137312E-17));
#1019=DIRECTION('',(-7.97795550137312E-17,0.,1.));
#1020=DIRECTION('',(-7.97795550137312E-17,0.,1.));
#1021=DIRECTION('',(-7.97795550137312E-17,0.,1.));
#1022=DIRECTION('',(0.,-1.,0.));
#1023=DIRECTION('',(-1.,0.,-1.22464679914735E-16));
#1024=DIRECTION('',(0.,-1.,0.));
#1025=DIRECTION('',(-1.22464679914735E-16,0.,1.));
#1026=DIRECTION('',(0.,-1.,0.));
#1027=DIRECTION('',(-1.22464679914735E-16,0.,1.));
#1028=DIRECTION('',(0.,-1.,0.));
#1029=DIRECTION('',(-1.,0.,-1.22464679914735E-16));
#1030=DIRECTION('',(0.,-1.,0.));
#1031=DIRECTION('',(-1.22464679914735E-16,0.,1.));
#1032=DIRECTION('',(0.,-1.,0.));
#1033=DIRECTION('',(-1.22464679914735E-16,0.,1.));
#1034=DIRECTION('',(0.,-1.,0.));
#1035=DIRECTION('',(-1.22464679914735E-16,0.,1.));
#1036=DIRECTION('',(0.,-1.,0.));
#1037=DIRECTION('',(-1.22464679914735E-16,0.,1.));
#1038=DIRECTION('',(0.,-1.,0.));
#1039=DIRECTION('',(-1.22464679914735E-16,0.,1.));
#1040=DIRECTION('',(0.,-1.,0.));
#1041=DIRECTION('',(-1.,0.,-1.22464679914735E-16));
#1042=DIRECTION('',(0.,-1.,0.));
#1043=DIRECTION('',(-1.22464679914735E-16,0.,1.));
#1044=DIRECTION('',(0.,-1.,0.));
#1045=DIRECTION('',(-1.22464679914735E-16,0.,1.));
#1046=DIRECTION('',(0.300276763753836,0.9538521191199,-1.31172061537299E-15));
#1047=DIRECTION('',(0.9538521191199,-0.300276763753836,2.5057339572153E-15));
#1048=DIRECTION('',(-8.75592305661623E-17,0.,-1.));
#1049=DIRECTION('',(-1.,0.,8.75592305661623E-17));
#1050=DIRECTION('',(-8.75592305661623E-17,0.,-1.));
#1051=DIRECTION('',(-1.,0.,8.75592305661623E-17));
#1052=DIRECTION('',(1.,0.,-8.75592305661623E-17));
#1053=DIRECTION('',(0.,-1.,0.));
#1054=DIRECTION('',(1.,0.,-8.75592305661623E-17));
#1055=DIRECTION('',(0.,-1.,0.));
#1056=DIRECTION('',(-8.75592305661623E-17,0.,-1.));
#1057=DIRECTION('',(-1.,0.,8.75592305661623E-17));
#1058=DIRECTION('',(-8.75592305661623E-17,0.,-1.));
#1059=DIRECTION('',(-1.,0.,8.75592305661623E-17));
#1060=DIRECTION('',(1.,0.,-8.75592305661623E-17));
#1061=DIRECTION('',(0.,-1.,0.));
#1062=DIRECTION('',(1.,0.,-8.75592305661623E-17));
#1063=DIRECTION('',(0.,-1.,0.));
#1064=DIRECTION('',(-8.75592305661623E-17,0.,-1.));
#1065=DIRECTION('',(-1.,0.,8.75592305661623E-17));
#1066=DIRECTION('',(-8.75592305661623E-17,0.,-1.));
#1067=DIRECTION('',(-1.,0.,8.75592305661623E-17));
#1068=DIRECTION('',(8.75592305661623E-17,0.,-1.));
#1069=DIRECTION('',(-1.,0.,-8.75592305661623E-17));
#1070=DIRECTION('',(8.75592305661623E-17,0.,-1.));
#1071=DIRECTION('',(-1.,0.,-8.75592305661623E-17));
#1072=DIRECTION('',(-1.,0.,-8.75592305661623E-17));
#1073=DIRECTION('',(0.,1.,0.));
#1074=DIRECTION('',(-1.,0.,-8.75592305661623E-17));
#1075=DIRECTION('',(0.,1.,0.));
#1076=DIRECTION('',(8.75592305661623E-17,0.,-1.));
#1077=DIRECTION('',(-1.,0.,-8.75592305661623E-17));
#1078=DIRECTION('',(8.75592305661623E-17,0.,-1.));
#1079=DIRECTION('',(-1.,0.,-8.75592305661623E-17));
#1080=DIRECTION('',(-1.,0.,-8.75592305661623E-17));
#1081=DIRECTION('',(0.,1.,0.));
#1082=DIRECTION('',(-1.,0.,-8.75592305661623E-17));
#1083=DIRECTION('',(0.,1.,0.));
#1084=DIRECTION('',(8.75592305661623E-17,0.,-1.));
#1085=DIRECTION('',(-1.,0.,-8.75592305661623E-17));
#1086=DIRECTION('',(8.75592305661623E-17,0.,-1.));
#1087=DIRECTION('',(-1.,0.,-8.75592305661623E-17));
#1088=DIRECTION('',(0.,-1.,0.));
#1089=DIRECTION('',(0.,0.,-1.));
#1090=DIRECTION('',(0.,0.,-1.));
#1091=DIRECTION('',(0.,0.,-1.));
#1092=DIRECTION('',(-1.,0.,0.));
#1093=DIRECTION('',(0.,-1.,0.));
#1094=DIRECTION('',(0.,0.,-1.));
#1095=DIRECTION('',(0.,0.,-1.));
#1096=DIRECTION('',(-1.,0.,0.));
#1097=DIRECTION('',(0.,0.,-1.));
#1098=DIRECTION('',(0.,0.,1.));
#1099=DIRECTION('',(1.,0.,0.));
#1100=DIRECTION('',(0.,0.,-1.));
#1101=DIRECTION('',(1.,0.,0.));
#1102=DIRECTION('',(0.,0.,-1.));
#1103=DIRECTION('',(1.,0.,0.));
#1104=DIRECTION('',(0.,0.,1.));
#1105=DIRECTION('',(1.,0.,0.));
#1106=DIRECTION('',(-8.53702498020082E-17,-1.,0.));
#1107=DIRECTION('',(-8.53702498020082E-17,-1.,0.));
#1108=DIRECTION('',(-1.,0.,0.));
#1109=DIRECTION('',(0.,0.,1.));
#1110=DIRECTION('',(1.,0.,0.));
#1111=DIRECTION('',(0.,0.,1.));
#1112=DIRECTION('',(1.,0.,0.));
#1113=DIRECTION('',(0.,0.,1.));
#1114=DIRECTION('',(1.,0.,0.));
#1115=DIRECTION('',(0.,0.,1.));
#1116=DIRECTION('',(1.,0.,0.));
#1117=DIRECTION('',(0.,0.,1.));
#1118=DIRECTION('',(1.,0.,0.));
#1119=DIRECTION('',(0.,0.,1.));
#1120=DIRECTION('',(1.,0.,0.));
#1121=DIRECTION('',(-8.53702498020082E-17,-1.,0.));
#1122=DIRECTION('',(-8.53702498020082E-17,-1.,0.));
#1123=DIRECTION('',(-1.,0.,0.));
#1124=DIRECTION('',(0.,0.,1.));
#1125=DIRECTION('',(1.,0.,0.));
#1126=DIRECTION('',(1.,-8.53702498020082E-17,0.));
#1127=DIRECTION('',(8.53702498020082E-17,1.,0.));
#1128=DIRECTION('',(0.,0.,-1.));
#1129=DIRECTION('',(0.,0.,-1.));
#1130=DIRECTION('',(0.,0.,-1.));
#1131=DIRECTION('',(0.,0.,-1.));
#1132=DIRECTION('',(0.,-1.,0.));
#1133=DIRECTION('',(0.,0.,-1.));
#1134=DIRECTION('',(0.,0.,-1.));
#1135=DIRECTION('',(1.,-8.53702498020082E-17,0.));
#1136=DIRECTION('',(8.53702498020082E-17,1.,0.));
#1137=DIRECTION('',(0.,0.,-1.));
#1138=DIRECTION('',(0.,0.,-1.));
#1139=DIRECTION('',(0.,0.,-1.));
#1140=DIRECTION('',(0.,-1.,0.));
#1141=DIRECTION('',(0.,0.,-1.));
#1142=DIRECTION('',(0.,0.,-1.));
#1143=DIRECTION('',(-1.,0.,0.));
#1144=DIRECTION('',(0.,0.,1.));
#1145=DIRECTION('',(1.,0.,0.));
#1146=DIRECTION('',(0.,0.,1.));
#1147=DIRECTION('',(1.,0.,0.));
#1148=DIRECTION('',(0.,0.,1.));
#1149=DIRECTION('',(1.,0.,0.));
#1150=DIRECTION('',(0.,0.,1.));
#1151=DIRECTION('',(1.,0.,0.));
#1152=DIRECTION('',(0.,0.,1.));
#1153=DIRECTION('',(1.,0.,0.));
#1154=DIRECTION('',(0.,0.,1.));
#1155=DIRECTION('',(1.,0.,0.));
#1156=DIRECTION('',(0.,1.,0.));
#1157=DIRECTION('',(-1.,0.,0.));
#1158=DIRECTION('',(0.,-1.,0.));
#1159=DIRECTION('',(1.,0.,0.));
#1160=DIRECTION('',(0.,0.,-1.));
#1161=DIRECTION('',(-1.,0.,0.));
#1162=DIRECTION('',(0.,0.,-1.));
#1163=DIRECTION('',(-1.,0.,0.));
#1164=DIRECTION('',(0.,0.,-1.));
#1165=DIRECTION('',(-1.,0.,0.));
#1166=DIRECTION('',(0.,0.,-1.));
#1167=DIRECTION('',(-1.,0.,0.));
#1168=DIRECTION('',(1.31571636591375E-47,-2.81960282391298E-49,1.));
#1169=DIRECTION('',(-0.0214252529295505,-0.999770452922522,0.));
#1170=DIRECTION('',(3.19839640880443E-18,-4.3368086899345E-19,-1.));
#1171=DIRECTION('',(1.,-5.66993082085919E-31,3.19839640880443E-18));
#1172=DIRECTION('',(-4.11111159148744E-48,-1.25015686470344E-47,1.));
#1173=DIRECTION('',(-0.949953901333995,0.312390117225756,0.));
#1174=DIRECTION('',(0.326601107111019,-0.945162270107021,1.05472929217016E-15));
#1175=DIRECTION('',(-0.945162270107021,-0.326601107111019,3.28424207092698E-15));
#1176=DIRECTION('',(-4.11111159148744E-48,-1.25015686470344E-47,1.));
#1177=DIRECTION('',(-0.949953901333995,0.312390117225756,0.));
#1178=DIRECTION('',(3.19839640880443E-18,-4.3368086899345E-19,-1.));
#1179=DIRECTION('',(1.,-5.66993082085919E-31,3.19839640880443E-18));
#1180=DIRECTION('',(-0.453850982281388,-0.891077598126122,0.));
#1181=DIRECTION('',(-0.891077598126122,0.453850982281388,0.));
#1182=DIRECTION('',(-0.282108316942511,0.959382560562711,-1.08999523524126E-15));
#1183=DIRECTION('',(0.959382560562711,0.282108316942511,1.77465884422E-15));
#1184=DIRECTION('',(3.19839640880443E-18,-4.3368086899345E-19,-1.));
#1185=DIRECTION('',(1.,-5.66993082085919E-31,3.19839640880443E-18));
#1186=DIRECTION('',(-0.333998564872152,-0.942573582625433,1.31084265047839E-15));
#1187=DIRECTION('',(-0.942573582625433,0.333998564872151,2.45642707397771E-15));
#1188=DIRECTION('',(-4.11111159148744E-48,-1.25015686470344E-47,1.));
#1189=DIRECTION('',(-0.949953901333995,0.312390117225756,0.));
#1190=DIRECTION('',(3.19839640880443E-18,-4.3368086899345E-19,-1.));
#1191=DIRECTION('',(1.,-5.66993082085919E-31,3.19839640880443E-18));
#1192=DIRECTION('',(0.273961062197741,-0.961740784411,4.71539051024374E-17));
#1193=DIRECTION('',(-0.961740784411,-0.273961062197741,3.90628812332754E-17));
#1194=CARTESIAN_POINT('',(0.,0.,0.));
#1195=CARTESIAN_POINT('',(-1.19438131526132E-17,-0.00381,0.04064));
#1196=CARTESIAN_POINT('',(-1.19438131526132E-17,0.,0.04064));
#1197=CARTESIAN_POINT('',(0.01016,0.,0.04064));
#1198=CARTESIAN_POINT('',(-0.01016,0.,0.04064));
#1199=CARTESIAN_POINT('',(-0.01016,-0.00381,0.04064));
#1200=CARTESIAN_POINT('',(-0.01016,-0.00381,0.04064));
#1201=CARTESIAN_POINT('',(-1.19438131526132E-17,-0.00381,0.04064));
#1202=CARTESIAN_POINT('',(0.01016,-0.00381,0.04064));
#1203=CARTESIAN_POINT('',(0.01016,-0.00381,0.04064));
#1204=CARTESIAN_POINT('',(-0.01016,-0.00381,0.));
#1205=CARTESIAN_POINT('',(-0.01016,0.,0.));
#1206=CARTESIAN_POINT('',(-0.01016,0.,-0.04064));
#1207=CARTESIAN_POINT('',(-0.01016,-0.00381,-0.04064));
#1208=CARTESIAN_POINT('',(-0.01016,-0.00381,-0.04064));
#1209=CARTESIAN_POINT('',(-0.01016,-0.00381,0.));
#1210=CARTESIAN_POINT('',(1.02090896766364E-17,-0.00381,-0.04064));
#1211=CARTESIAN_POINT('',(1.02090896766364E-17,0.,-0.04064));
#1212=CARTESIAN_POINT('',(0.01016,0.,-0.04064));
#1213=CARTESIAN_POINT('',(0.01016,-0.00381,-0.04064));
#1214=CARTESIAN_POINT('',(0.01016,-0.00381,-0.04064));
#1215=CARTESIAN_POINT('',(1.02090896766364E-17,-0.00381,-0.04064));
#1216=CARTESIAN_POINT('',(0.01016,-0.00381,0.));
#1217=CARTESIAN_POINT('',(0.01016,0.,0.));
#1218=CARTESIAN_POINT('',(0.01016,-0.00381,0.));
#1219=CARTESIAN_POINT('',(0.,-0.00381,0.));
#1220=CARTESIAN_POINT('',(0.,-0.00381,0.04064));
#1221=CARTESIAN_POINT('',(0.,-0.00381,0.030607));
#1222=CARTESIAN_POINT('',(0.,0.,0.));
#1223=CARTESIAN_POINT('',(0.,0.,0.04064));
#1224=CARTESIAN_POINT('',(0.,0.,0.038354));
#1225=CARTESIAN_POINT('',(0.,-0.00127,0.04064));
#1226=CARTESIAN_POINT('',(0.,-0.00127,0.04064));
#1227=CARTESIAN_POINT('',(0.,-0.00127,0.030607));
#1228=CARTESIAN_POINT('',(0.,-0.00127,0.));
#1229=CARTESIAN_POINT('',(0.,-0.00127,0.04064));
#1230=CARTESIAN_POINT('',(0.,-0.00127,0.038354));
#1231=CARTESIAN_POINT('',(0.,0.10242210308438,0.04064));
#1232=CARTESIAN_POINT('',(0.0660239761657606,-0.177225837977579,-0.0329679068702506));
#1233=CARTESIAN_POINT('',(-0.0810087984553027,-0.178419440681821,-0.0330678585018012));
#1234=CARTESIAN_POINT('',(2.2352154008474E-17,-0.00635,0.04064));
#1235=CARTESIAN_POINT('',(2.2352154008474E-17,0.,0.04064));
#1236=CARTESIAN_POINT('',(-0.01016,0.,0.04064));
#1237=CARTESIAN_POINT('',(0.01016,0.,0.04064));
#1238=CARTESIAN_POINT('',(0.01016,-0.00635,0.04064));
#1239=CARTESIAN_POINT('',(0.01016,-0.00635,0.04064));
#1240=CARTESIAN_POINT('',(2.2352154008474E-17,-0.00635,0.04064));
#1241=CARTESIAN_POINT('',(-0.01016,-0.00635,0.04064));
#1242=CARTESIAN_POINT('',(-0.01016,-0.00635,0.04064));
#1243=CARTESIAN_POINT('',(0.01016,-0.00635,0.08128));
#1244=CARTESIAN_POINT('',(0.01016,0.,0.08128));
#1245=CARTESIAN_POINT('',(0.01016,0.,0.12192));
#1246=CARTESIAN_POINT('',(0.01016,-0.00635,0.12192));
#1247=CARTESIAN_POINT('',(0.01016,-0.00635,0.12192));
#1248=CARTESIAN_POINT('',(0.01016,-0.00635,0.08128));
#1249=CARTESIAN_POINT('',(-1.1489401480222E-17,-0.00635,0.12192));
#1250=CARTESIAN_POINT('',(-1.1489401480222E-17,0.,0.12192));
#1251=CARTESIAN_POINT('',(-0.01016,0.,0.12192));
#1252=CARTESIAN_POINT('',(-0.01016,-0.00635,0.12192));
#1253=CARTESIAN_POINT('',(-0.01016,-0.00635,0.12192));
#1254=CARTESIAN_POINT('',(-1.1489401480222E-17,-0.00635,0.12192));
#1255=CARTESIAN_POINT('',(-0.01016,-0.00635,0.08128));
#1256=CARTESIAN_POINT('',(-0.01016,0.,0.08128));
#1257=CARTESIAN_POINT('',(-0.01016,-0.00635,0.08128));
#1258=CARTESIAN_POINT('',(5.431376264126E-18,-0.00635,0.08128));
#1259=CARTESIAN_POINT('',(-1.29723387192973E-17,-0.00635,0.118237));
#1260=CARTESIAN_POINT('',(-1.42010268528819E-17,-0.00635,0.12827));
#1261=CARTESIAN_POINT('',(-1.7347234759768E-18,-0.00635,0.04064));
#1262=CARTESIAN_POINT('',(-2.2790789781978E-18,-0.00635,0.045085));
#1263=CARTESIAN_POINT('',(5.431376264126E-18,0.,0.08128));
#1264=CARTESIAN_POINT('',(-1.29723387192973E-17,0.,0.118237));
#1265=CARTESIAN_POINT('',(-1.32522929775824E-17,0.,0.120523));
#1266=CARTESIAN_POINT('',(-1.7347234759768E-18,0.,0.04064));
#1267=CARTESIAN_POINT('',(-2.2790789781978E-18,0.,0.045085));
#1268=CARTESIAN_POINT('',(-1.7347234759768E-18,0.0974664781215508,0.04064));
#1269=CARTESIAN_POINT('',(-1.29723387192973E-17,-0.004318,0.118237));
#1270=CARTESIAN_POINT('',(-1.29723387192973E-17,-0.004318,0.118237));
#1271=CARTESIAN_POINT('',(-1.42010268528819E-17,-0.004318,0.12827));
#1272=CARTESIAN_POINT('',(5.431376264126E-18,-0.004318,0.08128));
#1273=CARTESIAN_POINT('',(-1.29723387192973E-17,-0.004318,0.118237));
#1274=CARTESIAN_POINT('',(-1.32522929775824E-17,-0.004318,0.120523));
#1275=CARTESIAN_POINT('',(-1.29723387192973E-17,0.0994984781215508,0.118237));
#1276=CARTESIAN_POINT('',(0.0142234540118059,-0.0143199318754064,-0.0316666619301127));
#1277=CARTESIAN_POINT('',(0.,0.02763,0.00396794881313943));
#1278=CARTESIAN_POINT('',(0.00658206874504686,0.0240501444786787,0.00396794881313943));
#1279=CARTESIAN_POINT('',(0.00358206874504686,0.0240501444786787,0.00396794881313943));
#1280=CARTESIAN_POINT('',(0.,0.02032,0.00396794881313943));
#1281=CARTESIAN_POINT('',(-0.009906,0.02032,0.00396794881313947));
#1282=CARTESIAN_POINT('',(0.009906,0.02032,0.00396794881313947));
#1283=CARTESIAN_POINT('',(-0.009906,0.02763,0.00396794881313945));
#1284=CARTESIAN_POINT('',(-0.009906,0.02763,0.00396794881313945));
#1285=CARTESIAN_POINT('',(0.,0.02763,0.00396794881313943));
#1286=CARTESIAN_POINT('',(0.009906,0.02763,0.00396794881313945));
#1287=CARTESIAN_POINT('',(0.009906,0.02763,0.00396794881313945));
#1288=CARTESIAN_POINT('',(-0.00658206874504686,0.0240501444786787,0.00396794881313943));
#1289=CARTESIAN_POINT('',(-0.00958206874504686,0.0240501444786787,0.00396794881313943));
#1290=CARTESIAN_POINT('',(0.,0.02763,0.00591922128758722));
#1291=CARTESIAN_POINT('',(0.,0.02032,0.00591922128758722));
#1292=CARTESIAN_POINT('',(-0.009906,0.02032,0.00591922128758726));
#1293=CARTESIAN_POINT('',(0.009906,0.02032,0.00591922128758723));
#1294=CARTESIAN_POINT('',(0.009906,0.02763,0.00591922128758723));
#1295=CARTESIAN_POINT('',(0.009906,0.02763,0.00591922128758723));
#1296=CARTESIAN_POINT('',(0.,0.02763,0.00591922128758722));
#1297=CARTESIAN_POINT('',(-0.009906,0.02763,0.00591922128758724));
#1298=CARTESIAN_POINT('',(-0.009906,0.02763,0.00591922128758724));
#1299=CARTESIAN_POINT('',(0.00658206874504686,0.0240501444786787,0.00591922128758722));
#1300=CARTESIAN_POINT('',(0.00358206874504686,0.0240501444786787,0.00591922128758722));
#1301=CARTESIAN_POINT('',(-0.00658206874504686,0.0240501444786787,0.00591922128758722));
#1302=CARTESIAN_POINT('',(-0.00958206874504686,0.0240501444786787,0.00591922128758722));
#1303=CARTESIAN_POINT('',(0.,-0.02763,0.00396795));
#1304=CARTESIAN_POINT('',(-0.00658206874504686,-0.0240501444786787,0.00396795));
#1305=CARTESIAN_POINT('',(-0.00958206874504686,-0.0240501444786787,0.00396795));
#1306=CARTESIAN_POINT('',(0.,-0.02032,0.00396795));
#1307=CARTESIAN_POINT('',(0.009906,-0.02032,0.00396795));
#1308=CARTESIAN_POINT('',(-0.009906,-0.02032,0.00396795));
#1309=CARTESIAN_POINT('',(0.009906,-0.02763,0.00396795));
#1310=CARTESIAN_POINT('',(0.009906,-0.02763,0.00396795));
#1311=CARTESIAN_POINT('',(0.,-0.02763,0.00396795));
#1312=CARTESIAN_POINT('',(-0.009906,-0.02763,0.00396795));
#1313=CARTESIAN_POINT('',(-0.009906,-0.02763,0.00396795));
#1314=CARTESIAN_POINT('',(0.00658206874504686,-0.0240501444786787,0.00396795));
#1315=CARTESIAN_POINT('',(0.00358206874504686,-0.0240501444786787,0.00396795));
#1316=CARTESIAN_POINT('',(0.,-0.02763,0.00591922));
#1317=CARTESIAN_POINT('',(0.,-0.02032,0.00591922));
#1318=CARTESIAN_POINT('',(0.009906,-0.02032,0.00591922));
#1319=CARTESIAN_POINT('',(-0.009906,-0.02032,0.00591922));
#1320=CARTESIAN_POINT('',(-0.009906,-0.02763,0.00591922));
#1321=CARTESIAN_POINT('',(-0.009906,-0.02763,0.00591922));
#1322=CARTESIAN_POINT('',(0.,-0.02763,0.00591922));
#1323=CARTESIAN_POINT('',(0.009906,-0.02763,0.00591922));
#1324=CARTESIAN_POINT('',(0.009906,-0.02763,0.00591922));
#1325=CARTESIAN_POINT('',(-0.00658206874504686,-0.0240501444786787,0.00591922));
#1326=CARTESIAN_POINT('',(-0.00958206874504686,-0.0240501444786787,0.00591922));
#1327=CARTESIAN_POINT('',(0.00658206874504686,-0.0240501444786787,0.00591922));
#1328=CARTESIAN_POINT('',(0.00358206874504686,-0.0240501444786787,0.00591922));
#1329=CARTESIAN_POINT('',(0.,-0.02032,0.037338));
#1330=CARTESIAN_POINT('',(0.009906,-0.02032,0.037338));
#1331=CARTESIAN_POINT('',(0.009906,-0.02032,0.));
#1332=CARTESIAN_POINT('',(-0.009906,-0.02032,0.037338));
#1333=CARTESIAN_POINT('',(-0.009906,-0.02032,0.));
#1334=CARTESIAN_POINT('',(0.,-0.02032,0.));
#1335=CARTESIAN_POINT('',(0.,0.02032,0.037338));
#1336=CARTESIAN_POINT('',(-0.009906,0.02032,0.037338));
#1337=CARTESIAN_POINT('',(-0.009906,0.02032,0.037338));
#1338=CARTESIAN_POINT('',(0.,0.02032,0.037338));
#1339=CARTESIAN_POINT('',(0.009906,0.02032,0.037338));
#1340=CARTESIAN_POINT('',(0.009906,0.02032,0.037338));
#1341=CARTESIAN_POINT('',(0.,-3.46944695195361E-18,0.037338));
#1342=CARTESIAN_POINT('',(-0.00743703182066649,0.0128596447595308,0.037338));
#1343=CARTESIAN_POINT('',(-0.00527803182066649,0.0128596447595308,0.037338));
#1344=CARTESIAN_POINT('',(-0.00743703182066649,0.0176035761833191,0.037338));
#1345=CARTESIAN_POINT('',(-0.00527803182066649,0.0176035761833191,0.037338));
#1346=CARTESIAN_POINT('',(4.33680868994202E-19,0.010414,0.037338));
#1347=CARTESIAN_POINT('',(0.002921,0.010414,0.037338));
#1348=CARTESIAN_POINT('',(0.009906,-3.46944695195361E-18,0.037338));
#1349=CARTESIAN_POINT('',(0.009906,-0.02032,0.037338));
#1350=CARTESIAN_POINT('',(-0.009906,0.,0.037338));
#1351=CARTESIAN_POINT('',(-0.009906,-0.02032,0.037338));
#1352=CARTESIAN_POINT('',(0.,-0.02032,0.037338));
#1353=CARTESIAN_POINT('',(0.00743703182066649,0.0128596447595308,0.037338));
#1354=CARTESIAN_POINT('',(0.00959603182066649,0.0128596447595308,0.037338));
#1355=CARTESIAN_POINT('',(0.00743703182066649,0.0176035761833191,0.037338));
#1356=CARTESIAN_POINT('',(0.00959603182066649,0.0176035761833191,0.037338));
#1357=CARTESIAN_POINT('',(0.,-3.46944695195361E-18,0.));
#1358=CARTESIAN_POINT('',(0.00743703182066649,0.0128596447595308,0.));
#1359=CARTESIAN_POINT('',(0.00959603182066649,0.0128596447595308,0.));
#1360=CARTESIAN_POINT('',(-0.00743703182066649,0.0128596447595308,0.));
#1361=CARTESIAN_POINT('',(-0.00527803182066649,0.0128596447595308,0.));
#1362=CARTESIAN_POINT('',(-0.00743703182066649,0.0176035761833191,0.));
#1363=CARTESIAN_POINT('',(-0.00527803182066649,0.0176035761833191,0.));
#1364=CARTESIAN_POINT('',(0.009906,-3.46944695195361E-18,0.));
#1365=CARTESIAN_POINT('',(0.009906,0.02032,0.));
#1366=CARTESIAN_POINT('',(-0.009906,0.,0.));
#1367=CARTESIAN_POINT('',(-0.009906,0.02032,0.));
#1368=CARTESIAN_POINT('',(0.,0.02032,0.));
#1369=CARTESIAN_POINT('',(0.00743703182066649,0.0176035761833191,0.));
#1370=CARTESIAN_POINT('',(0.00959603182066649,0.0176035761833191,0.));
#1371=CARTESIAN_POINT('',(0.009906,-3.46944695195361E-18,0.037338));
#1372=CARTESIAN_POINT('',(0.009906,-0.02032,0.037338));
#1373=CARTESIAN_POINT('',(0.009906,-0.02763,0.037338));
#1374=CARTESIAN_POINT('',(0.009906,0.02032,0.037338));
#1375=CARTESIAN_POINT('',(0.009906,0.02763,0.037338));
#1376=CARTESIAN_POINT('',(0.,0.02032,0.037338));
#1377=CARTESIAN_POINT('',(-0.009906,0.02032,0.037338));
#1378=CARTESIAN_POINT('',(-0.009906,0.,0.037338));
#1379=CARTESIAN_POINT('',(-0.009906,-0.02763,0.037338));
#1380=CARTESIAN_POINT('',(-0.009906,-0.02032,0.037338));
#1381=CARTESIAN_POINT('',(-0.009906,0.02763,0.037338));
#1382=CARTESIAN_POINT('',(0.,-0.02032,0.037338));
#1383=CARTESIAN_POINT('',(4.33680868994202E-19,0.010414,0.04318));
#1384=CARTESIAN_POINT('',(4.33680868994202E-19,0.010414,0.04318));
#1385=CARTESIAN_POINT('',(0.002921,0.010414,0.04318));
#1386=CARTESIAN_POINT('',(0.,0.,0.04318));
#1387=CARTESIAN_POINT('',(-0.00743703182066649,0.0176035761833191,-0.0251910958347927));
#1388=CARTESIAN_POINT('',(-0.00743703182066649,0.0128596447595308,-0.0251910958347927));
#1389=CARTESIAN_POINT('',(0.00743703182066649,0.0128596447595308,-0.0251910958347927));
#1390=CARTESIAN_POINT('',(0.00743703182066649,0.0176035761833191,-0.0251910958347927));
#1391=CARTESIAN_POINT('',(0.,0.02763,0.018669));
#1392=CARTESIAN_POINT('',(0.,-0.02763,0.018669));
#1393=CARTESIAN_POINT('',(-0.00658206874504686,-0.0240501444786787,0.0883));
#1394=CARTESIAN_POINT('',(0.00658206874504686,-0.0240501444786787,0.0883));
#1395=CARTESIAN_POINT('',(0.00658206874504686,0.0240501444786787,0.0883));
#1396=CARTESIAN_POINT('',(-0.00658206874504686,0.0240501444786787,0.0883));
#1397=CARTESIAN_POINT('',(-0.0770789288626565,0.098820131321494,-0.0750788871216489));
#1398=CARTESIAN_POINT('',(-0.0447765602961325,0.0345658001854985,0.0176311128783515));
#1399=CARTESIAN_POINT('',(0.0550939266538014,-0.129248320820751,-0.0748779068702504));
#1400=CARTESIAN_POINT('',(0.0132243608715249,-0.0273879894185961,-0.0316979068702508));
#1401=CARTESIAN_POINT('',(-0.0675263133760981,-0.12919505640035,-0.0749778585018013));
#1402=CARTESIAN_POINT('',(0.0264974298645172,-0.0553853840757467,0.0178320931297492));
#1403=CARTESIAN_POINT('',(0.0681717816476851,0.134674074720823,-0.0329366619301129));
#1404=CARTESIAN_POINT('',(-0.0333116782955884,-0.0148375070757715,-0.0318988871216485));
#1405=CARTESIAN_POINT('',(-0.044862257418502,-0.0555329940378539,0.0177321414981986));
#1406=CARTESIAN_POINT('',(-0.0312885557420973,-0.0276408036399549,-0.0317978585018016));
#1407=CARTESIAN_POINT('',(0.0529805084085584,0.108353501061469,-0.074846661930113));
#1408=CARTESIAN_POINT('',(0.0264267016907622,0.0348586182456276,0.0178633380698873));
#1409=CARTESIAN_POINT('',(-0.0778010969336376,0.137682154215949,-0.0331688871216489));
#1410=MECHANICAL_DESIGN_GEOMETRIC_PRESENTATION_REPRESENTATION('',(#807,
#808,#809,#10,#11),#1411);
#1411=(
GEOMETRIC_REPRESENTATION_CONTEXT(3)
GLOBAL_UNCERTAINTY_ASSIGNED_CONTEXT((#1415))
GLOBAL_UNIT_ASSIGNED_CONTEXT((#1421,#1420,#1419))
REPRESENTATION_CONTEXT('Assembly 2','TOP_LEVEL_ASSEMBLY_PART')
);
#1412=(
GEOMETRIC_REPRESENTATION_CONTEXT(3)
GLOBAL_UNCERTAINTY_ASSIGNED_CONTEXT((#1416))
GLOBAL_UNIT_ASSIGNED_CONTEXT((#1421,#1420,#1419))
REPRESENTATION_CONTEXT('Part 1','COMPONENT_PART')
);
#1413=(
GEOMETRIC_REPRESENTATION_CONTEXT(3)
GLOBAL_UNCERTAINTY_ASSIGNED_CONTEXT((#1417))
GLOBAL_UNIT_ASSIGNED_CONTEXT((#1421,#1420,#1419))
REPRESENTATION_CONTEXT('Part 1','COMPONENT_PART')
);
#1414=(
GEOMETRIC_REPRESENTATION_CONTEXT(3)
GLOBAL_UNCERTAINTY_ASSIGNED_CONTEXT((#1418))
GLOBAL_UNIT_ASSIGNED_CONTEXT((#1421,#1420,#1419))
REPRESENTATION_CONTEXT('Part 1','COMPONENT_PART')
);
#1415=UNCERTAINTY_MEASURE_WITH_UNIT(LENGTH_MEASURE(1.E-8),#1421,
'DISTANCE_ACCURACY_VALUE','Maximum Tolerance applied to model');
#1416=UNCERTAINTY_MEASURE_WITH_UNIT(LENGTH_MEASURE(1.E-8),#1421,
'DISTANCE_ACCURACY_VALUE','Maximum Tolerance applied to model');
#1417=UNCERTAINTY_MEASURE_WITH_UNIT(LENGTH_MEASURE(1.E-8),#1421,
'DISTANCE_ACCURACY_VALUE','Maximum Tolerance applied to model');
#1418=UNCERTAINTY_MEASURE_WITH_UNIT(LENGTH_MEASURE(1.E-8),#1421,
'DISTANCE_ACCURACY_VALUE','Maximum Tolerance applied to model');
#1419=(
NAMED_UNIT(*)
SI_UNIT($,.STERADIAN.)
SOLID_ANGLE_UNIT()
);
#1420=(
NAMED_UNIT(*)
PLANE_ANGLE_UNIT()
SI_UNIT($,.RADIAN.)
);
#1421=(
LENGTH_UNIT()
NAMED_UNIT(*)
SI_UNIT($,.METRE.)
);
#1422=PRODUCT_DEFINITION_SHAPE('','',#1442);
#1423=PRODUCT_DEFINITION_SHAPE('','',#1443);
#1424=PRODUCT_DEFINITION_SHAPE(' ','NAUO PRDDFN',#28);
#1425=PRODUCT_DEFINITION_SHAPE(' ','NAUO PRDDFN',#29);
#1426=PRODUCT_DEFINITION_SHAPE('','',#1444);
#1427=PRODUCT_DEFINITION_SHAPE(' ','NAUO PRDDFN',#30);
#1428=PRODUCT_DEFINITION_SHAPE('','',#1445);
#1429=PRODUCT_DEFINITION_SHAPE(' ','NAUO PRDDFN',#31);
#1430=PRODUCT_DEFINITION_SHAPE(' ','NAUO PRDDFN',#32);
#1431=PRODUCT_DEFINITION_SHAPE(' ','NAUO PRDDFN',#33);
#1432=PRODUCT_DEFINITION_SHAPE(' ','NAUO PRDDFN',#34);
#1433=PRODUCT_DEFINITION_SHAPE(' ','NAUO PRDDFN',#35);
#1434=PRODUCT_DEFINITION_SHAPE(' ','NAUO PRDDFN',#36);
#1435=PRODUCT_DEFINITION_SHAPE(' ','NAUO PRDDFN',#37);
#1436=PRODUCT_DEFINITION_SHAPE(' ','NAUO PRDDFN',#38);
#1437=PRODUCT_DEFINITION_SHAPE(' ','NAUO PRDDFN',#39);
#1438=PRODUCT_DEFINITION_SHAPE(' ','NAUO PRDDFN',#40);
#1439=PRODUCT_DEFINITION_SHAPE(' ','NAUO PRDDFN',#41);
#1440=PRODUCT_DEFINITION_SHAPE(' ','NAUO PRDDFN',#42);
#1441=PRODUCT_DEFINITION_SHAPE(' ','NAUO PRDDFN',#43);
#1442=PRODUCT_DEFINITION('','',#1450,#1446);
#1443=PRODUCT_DEFINITION('','',#1451,#1447);
#1444=PRODUCT_DEFINITION('','',#1452,#1448);
#1445=PRODUCT_DEFINITION('','',#1453,#1449);
#1446=PRODUCT_DEFINITION_CONTEXT('',#1471,'design');
#1447=PRODUCT_DEFINITION_CONTEXT('',#1471,'design');
#1448=PRODUCT_DEFINITION_CONTEXT('',#1471,'design');
#1449=PRODUCT_DEFINITION_CONTEXT('',#1471,'design');
#1450=PRODUCT_DEFINITION_FORMATION_WITH_SPECIFIED_SOURCE('','',#1458,
 .NOT_KNOWN.);
#1451=PRODUCT_DEFINITION_FORMATION_WITH_SPECIFIED_SOURCE('','',#1459,
 .NOT_KNOWN.);
#1452=PRODUCT_DEFINITION_FORMATION_WITH_SPECIFIED_SOURCE('','',#1460,
 .NOT_KNOWN.);
#1453=PRODUCT_DEFINITION_FORMATION_WITH_SPECIFIED_SOURCE('','',#1461,
 .NOT_KNOWN.);
#1454=PRODUCT_RELATED_PRODUCT_CATEGORY('','',(#1458));
#1455=PRODUCT_RELATED_PRODUCT_CATEGORY('','',(#1459));
#1456=PRODUCT_RELATED_PRODUCT_CATEGORY('','',(#1460));
#1457=PRODUCT_RELATED_PRODUCT_CATEGORY('','',(#1461));
#1458=PRODUCT('Assembly 2','Assembly 2','Assembly 2',(#1466));
#1459=PRODUCT('Part 1','Part 1','Part 1',(#1467));
#1460=PRODUCT('Part 1','Part 1','Part 1',(#1468));
#1461=PRODUCT('Part 1','Part 1','Part 1',(#1469));
#1462=PRODUCT_CATEGORY('','');
#1463=PRODUCT_CATEGORY('','');
#1464=PRODUCT_CATEGORY('','');
#1465=PRODUCT_CATEGORY('','');
#1466=PRODUCT_CONTEXT('',#1471,'mechanical');
#1467=PRODUCT_CONTEXT('',#1471,'mechanical');
#1468=PRODUCT_CONTEXT('',#1471,'mechanical');
#1469=PRODUCT_CONTEXT('',#1471,'mechanical');
#1470=APPLICATION_PROTOCOL_DEFINITION('international standard',
'ap242_managed_model_based_3d_engineering',2020,#1471);
#1471=APPLICATION_CONTEXT('managed model based 3d engineering');
ENDSEC;
END-ISO-10303-21;
